<svg xmlns="http://www.w3.org/2000/svg" width="1177" height="636" fill="none"><mask id="a" width="1177" height="636" x="0" y="0" maskUnits="userSpaceOnUse" style="mask-type:luminance"><path fill="#fff" d="M1176.67 0H0v635.586h1176.67V0Z"/></mask><g mask="url(#a)"><path fill="#FFB900" d="M1040.47 590.187c0-25.072-20.33-45.398-45.399-45.398-.001 25.071 20.329 45.398 45.399 45.398Z"/></g><mask id="b" width="1177" height="636" x="0" y="0" maskUnits="userSpaceOnUse" style="mask-type:luminance"><path fill="#fff" d="M1176.67 0H0v635.586h1176.67V0Z"/></mask><g mask="url(#b)"><path fill="#001E64" d="M1085.87 635.586c0-25.072-20.33-45.398-45.4-45.398 0 25.072 20.33 45.398 45.4 45.398Z"/></g><mask id="c" width="1177" height="636" x="0" y="0" maskUnits="userSpaceOnUse" style="mask-type:luminance"><path fill="#fff" d="M1176.67 0H0v635.586h1176.67V0Z"/></mask><g mask="url(#c)"><path fill="#001E64" d="M1040.47 590.188c-25.07 0-45.399 20.326-45.399 45.398 25.069 0 45.399-20.326 45.399-45.398Z"/></g><mask id="d" width="1177" height="636" x="0" y="0" maskUnits="userSpaceOnUse" style="mask-type:luminance"><path fill="#fff" d="M1176.67 0H0v635.586h1176.67V0Z"/></mask><g mask="url(#d)"><path fill="#00BE64" d="M1085.87 544.785c-25.07 0-45.4 20.326-45.4 45.399 25.07.001 45.4-20.326 45.4-45.399Z"/></g><mask id="e" width="1177" height="636" x="0" y="0" maskUnits="userSpaceOnUse" style="mask-type:luminance"><path fill="#fff" d="M1176.67 0H0v635.586h1176.67V0Z"/></mask><g mask="url(#e)"><path fill="#003C96" d="M949.672 68.098c-12.536 0-22.699-10.163-22.699-22.7 0-12.536 10.163-22.699 22.699-22.699 12.535 0 22.699 10.163 22.699 22.7 0 12.536-10.164 22.7-22.699 22.7Z"/></g><mask id="f" width="1177" height="636" x="0" y="0" maskUnits="userSpaceOnUse" style="mask-type:luminance"><path fill="#fff" d="M1176.67 0H0v635.586h1176.67V0Z"/></mask><g mask="url(#f)"><path fill="#00BE64" d="M722.676 45.398v22.7c12.536 0 22.7 10.163 22.7 22.7h22.699c0-25.073-20.326-45.4-45.399-45.4Z"/></g><mask id="g" width="1177" height="636" x="0" y="0" maskUnits="userSpaceOnUse" style="mask-type:luminance"><path fill="#fff" d="M1176.67 0H0v635.586h1176.67V0Z"/></mask><g mask="url(#g)"><path fill="#FF9500" d="M722.676 22.7v22.7c25.073 0 45.399-20.327 45.399-45.4h-22.699c0 12.537-10.164 22.7-22.7 22.7Z"/></g><mask id="h" width="1177" height="636" x="0" y="0" maskUnits="userSpaceOnUse" style="mask-type:luminance"><path fill="#fff" d="M1176.67 0H0v635.586h1176.67V0Z"/></mask><g mask="url(#h)"><path fill="#00BE64" d="M790.774 0h-22.7c0 25.073 20.327 45.399 45.4 45.399V22.7c-12.536 0-22.7-10.164-22.7-22.7Z"/></g><mask id="i" width="1177" height="636" x="0" y="0" maskUnits="userSpaceOnUse" style="mask-type:luminance"><path fill="#fff" d="M1176.67 0H0v635.586h1176.67V0Z"/></mask><g mask="url(#i)"><path fill="#FFB900" d="M813.474 68.098v-22.7c-25.073 0-45.399 20.327-45.399 45.4h22.699c0-12.537 10.164-22.7 22.7-22.7Z"/></g><mask id="j" width="1177" height="636" x="0" y="0" maskUnits="userSpaceOnUse" style="mask-type:luminance"><path fill="#fff" d="M1176.67 0H0v635.586h1176.67V0Z"/></mask><g mask="url(#j)"><path fill="#00BE64" d="M1131.27 226.996c0 25.073 20.32 45.399 45.4 45.399 0-25.074-20.33-45.399-45.4-45.399Z"/></g><mask id="k" width="1177" height="636" x="0" y="0" maskUnits="userSpaceOnUse" style="mask-type:luminance"><path fill="#fff" d="M1176.67 0H0v635.586h1176.67V0Z"/></mask><g mask="url(#k)"><path fill="#00BE64" d="M1085.87 181.598c0 25.073 20.32 45.399 45.4 45.399 0-25.074-20.33-45.399-45.4-45.399Z"/></g><mask id="l" width="1177" height="636" x="0" y="0" maskUnits="userSpaceOnUse" style="mask-type:luminance"><path fill="#fff" d="M1176.67 0H0v635.586h1176.67V0Z"/></mask><g mask="url(#l)"><path fill="#FFB900" d="M1131.27 226.997c25.07 0 45.4-20.326 45.4-45.399-25.08 0-45.4 20.325-45.4 45.399Z"/></g><mask id="m" width="1177" height="636" x="0" y="0" maskUnits="userSpaceOnUse" style="mask-type:luminance"><path fill="#fff" d="M1176.67 0H0v635.586h1176.67V0Z"/></mask><g mask="url(#m)"><path fill="#fff" d="M1085.87 272.395c25.07 0 45.4-20.325 45.4-45.399-25.08-.001-45.4 20.325-45.4 45.399Z"/></g><mask id="n" width="1177" height="636" x="0" y="0" maskUnits="userSpaceOnUse" style="mask-type:luminance"><path fill="#fff" d="M1176.67 0H0v635.586h1176.67V0Z"/></mask><g mask="url(#n)"><path fill="#003C96" d="M177.888 0H87.09v90.798h90.798V0Z"/></g><mask id="o" width="1177" height="636" x="0" y="0" maskUnits="userSpaceOnUse" style="mask-type:luminance"><path fill="#fff" d="M1176.67 0H0v635.586h1176.67V0Z"/></mask><g mask="url(#o)"><path fill="#00BE64" d="M104.632 57.25c4.612 10.825 15.347 18.415 27.856 18.415-4.611-10.825-15.347-18.415-27.856-18.415Z"/></g><mask id="p" width="1177" height="636" x="0" y="0" maskUnits="userSpaceOnUse" style="mask-type:luminance"><path fill="#fff" d="M1176.67 0H0v635.586h1176.67V0Z"/></mask><g mask="url(#p)"><path fill="#FFB900" d="M155.188 37.833c0 12.536-10.163 22.7-22.7 22.7-12.536 0-22.699-10.164-22.699-22.7s10.163-22.7 22.699-22.7c12.537 0 22.7 10.163 22.7 22.7Z"/></g><mask id="q" width="1177" height="636" x="0" y="0" maskUnits="userSpaceOnUse" style="mask-type:luminance"><path fill="#fff" d="M1176.67 0H0v635.586h1176.67V0Z"/></mask><g mask="url(#q)"><path fill="#00BE64" d="M132.489 75.666c9.189 0 17.102-5.461 20.673-13.314-9.189 0-17.101 5.46-20.673 13.314Z"/></g><mask id="r" width="1177" height="636" x="0" y="0" maskUnits="userSpaceOnUse" style="mask-type:luminance"><path fill="#fff" d="M1176.67 0H0v635.586h1176.67V0Z"/></mask><g mask="url(#r)"><path fill="#003C96" d="M143.838 37.83c0 6.27-5.082 11.35-11.35 11.35s-11.35-5.08-11.35-11.35c0-6.267 5.082-11.35 11.35-11.35s11.35 5.082 11.35 11.35Z"/></g><mask id="s" width="1177" height="636" x="0" y="0" maskUnits="userSpaceOnUse" style="mask-type:luminance"><path fill="#fff" d="M1176.67 0H0v635.586h1176.67V0Z"/></mask><g mask="url(#s)"><path fill="#fff" d="M268.686 45.398c25.073 20.177 65.725 20.177 90.798 0-25.073-20.177-65.725-20.177-90.798 0Z"/></g><mask id="t" width="1177" height="636" x="0" y="0" maskUnits="userSpaceOnUse" style="mask-type:luminance"><path fill="#fff" d="M1176.67 0H0v635.586h1176.67V0Z"/></mask><g mask="url(#t)"><path fill="#00BE64" d="M268.686 15.133c25.073 20.177 65.725 20.177 90.798 0-25.073-20.177-65.725-20.177-90.798 0Z"/></g><mask id="u" width="1177" height="636" x="0" y="0" maskUnits="userSpaceOnUse" style="mask-type:luminance"><path fill="#fff" d="M1176.67 0H0v635.586h1176.67V0Z"/></mask><g mask="url(#u)"><path fill="#001E64" d="M268.686 75.665c25.073 20.177 65.725 20.177 90.798 0-25.073-20.179-65.725-20.178-90.798 0Z"/></g><mask id="v" width="1177" height="636" x="0" y="0" maskUnits="userSpaceOnUse" style="mask-type:luminance"><path fill="#fff" d="M1176.67 0H0v635.586h1176.67V0Z"/></mask><g mask="url(#v)"><path fill="#FFB900" d="M87.09 90.797c0-25.072-20.326-45.399-45.399-45.399s-45.399 20.327-45.399 45.4H87.09Z"/></g><mask id="w" width="1177" height="636" x="0" y="0" maskUnits="userSpaceOnUse" style="mask-type:luminance"><path fill="#fff" d="M1176.67 0H0v635.586h1176.67V0Z"/></mask><g mask="url(#w)"><path fill="#001E64" d="M-3.708 0c0 25.073 20.326 45.399 45.399 45.399S87.09 25.073 87.09 0H-3.708Z"/></g><mask id="x" width="1177" height="636" x="0" y="0" maskUnits="userSpaceOnUse" style="mask-type:luminance"><path fill="#fff" d="M1176.67 0H0v635.586h1176.67V0Z"/></mask><g mask="url(#x)"><path fill="#FFB900" d="M495.681 0c-20.177 25.073-20.177 65.725 0 90.798 20.177-25.073 20.177-65.725 0-90.798Z"/></g><mask id="y" width="1177" height="636" x="0" y="0" maskUnits="userSpaceOnUse" style="mask-type:luminance"><path fill="#fff" d="M1176.67 0H0v635.586h1176.67V0Z"/></mask><g mask="url(#y)"><path fill="#fff" d="M525.947 0c-20.177 25.073-20.177 65.725 0 90.798 20.178-25.073 20.178-65.725 0-90.798Z"/></g><mask id="z" width="1177" height="636" x="0" y="0" maskUnits="userSpaceOnUse" style="mask-type:luminance"><path fill="#fff" d="M1176.67 0H0v635.586h1176.67V0Z"/></mask><g mask="url(#z)"><path fill="#001E64" d="M465.415 0c-20.177 25.073-20.177 65.725 0 90.798 20.177-25.073 20.177-65.725 0-90.798Z"/></g><mask id="A" width="1177" height="636" x="0" y="0" maskUnits="userSpaceOnUse" style="mask-type:luminance"><path fill="#fff" d="M1176.67 0H0v635.586h1176.67V0Z"/></mask><g mask="url(#A)"><path fill="#fff" d="M404.883 0c-25.073 0-45.399 20.327-45.399 45.399 0 25.073 20.326 45.4 45.399 45.4s45.399-20.327 45.399-45.4C450.282 20.327 429.956 0 404.883 0Zm0 68.099c-12.536 0-22.7-10.163-22.7-22.7 0-12.536 10.164-22.699 22.7-22.699s22.7 10.163 22.7 22.699c0 12.537-10.164 22.7-22.7 22.7Z"/></g><mask id="B" width="1177" height="636" x="0" y="0" maskUnits="userSpaceOnUse" style="mask-type:luminance"><path fill="#fff" d="M1176.67 0H0v635.586h1176.67V0Z"/></mask><g mask="url(#B)"><path fill="#001E64" d="M268.686 0c-25.073 0-45.399 20.326-45.399 45.399s20.326 45.399 45.399 45.399V0Z"/></g><mask id="C" width="1177" height="636" x="0" y="0" maskUnits="userSpaceOnUse" style="mask-type:luminance"><path fill="#fff" d="M1176.67 0H0v635.586h1176.67V0Z"/></mask><g mask="url(#C)"><path fill="#FFB900" d="M177.888 90.798c25.073 0 45.399-20.326 45.399-45.399S202.961 0 177.888 0v90.798Z"/></g><mask id="D" width="1177" height="636" x="0" y="0" maskUnits="userSpaceOnUse" style="mask-type:luminance"><path fill="#fff" d="M1176.67 0H0v635.586h1176.67V0Z"/></mask><g mask="url(#D)"><path fill="#003C96" d="M450.282 272.395h-90.798v90.799h90.798v-90.799Z"/></g><mask id="E" width="1177" height="636" x="0" y="0" maskUnits="userSpaceOnUse" style="mask-type:luminance"><path fill="#fff" d="M1176.67 0H0v635.586h1176.67V0Z"/></mask><g mask="url(#E)"><path fill="#001E64" d="M359.484 363.192c25.073 0 45.399-20.327 45.399-45.4 0-25.073-20.326-45.397-45.399-45.397v90.797Z"/></g><mask id="F" width="1177" height="636" x="0" y="0" maskUnits="userSpaceOnUse" style="mask-type:luminance"><path fill="#fff" d="M1176.67 0H0v635.586h1176.67V0Z"/></mask><g mask="url(#F)"><path fill="#FFB900" d="M450.282 272.395c-25.073 0-45.399 20.324-45.399 45.397 0 25.073 20.326 45.4 45.399 45.4v-90.797Z"/></g><mask id="G" width="1177" height="636" x="0" y="0" maskUnits="userSpaceOnUse" style="mask-type:luminance"><path fill="#fff" d="M1176.67 0H0v635.586h1176.67V0Z"/></mask><g mask="url(#G)"><path fill="#FFB900" d="M1040.47 113.496c12.54 0 22.7 10.163 22.7 22.699 0 12.537-10.16 22.7-22.7 22.7s-22.7-10.163-22.7-22.7c0-12.536 10.16-22.699 22.7-22.699Z"/></g><mask id="H" width="1177" height="636" x="0" y="0" maskUnits="userSpaceOnUse" style="mask-type:luminance"><path fill="#fff" d="M1176.67 0H0v635.586h1176.67V0Z"/></mask><g mask="url(#H)"><path fill="#fff" d="M995.07 226.996v22.7c12.54 0 22.7 10.163 22.7 22.699h22.7c0-25.074-20.33-45.399-45.4-45.399Z"/></g><mask id="I" width="1177" height="636" x="0" y="0" maskUnits="userSpaceOnUse" style="mask-type:luminance"><path fill="#fff" d="M1176.67 0H0v635.586h1176.67V0Z"/></mask><g mask="url(#I)"><path fill="#00BE64" d="M995.07 204.294v22.7c25.07 0 45.4-20.327 45.4-45.4h-22.7c0 12.537-10.16 22.7-22.7 22.7Z"/></g><mask id="J" width="1177" height="636" x="0" y="0" maskUnits="userSpaceOnUse" style="mask-type:luminance"><path fill="#fff" d="M1176.67 0H0v635.586h1176.67V0Z"/></mask><g mask="url(#J)"><path fill="#00BE64" d="M1063.17 181.598h-22.7c0 25.073 20.33 45.399 45.4 45.399v-22.7c-12.54 0-22.7-10.164-22.7-22.699Z"/></g><mask id="K" width="1177" height="636" x="0" y="0" maskUnits="userSpaceOnUse" style="mask-type:luminance"><path fill="#fff" d="M1176.67 0H0v635.586h1176.67V0Z"/></mask><g mask="url(#K)"><path fill="#FFB900" d="M1085.87 249.692v-22.7c-25.07 0-45.4 20.327-45.4 45.399h22.7c0-12.536 10.16-22.699 22.7-22.699Z"/></g><mask id="L" width="1177" height="636" x="0" y="0" maskUnits="userSpaceOnUse" style="mask-type:luminance"><path fill="#fff" d="M1176.67 0H0v635.586h1176.67V0Z"/></mask><g mask="url(#L)"><path fill="#fff" d="M1017.77 0c-12.53 0-22.698 10.163-22.698 22.699 0 12.537 10.168 22.7 22.698 22.7 12.54 0 22.7-10.163 22.7-22.7 0-12.536-10.16-22.699-22.7-22.699Zm0 34.049c-6.27 0-11.35-5.082-11.35-11.35s5.08-11.35 11.35-11.35 11.35 5.082 11.35 11.35-5.08 11.35-11.35 11.35Z"/></g><mask id="M" width="1177" height="636" x="0" y="0" maskUnits="userSpaceOnUse" style="mask-type:luminance"><path fill="#fff" d="M1176.67 0H0v635.586h1176.67V0Z"/></mask><g mask="url(#M)"><path fill="#FFB900" d="M1017.77 45.398c-12.53 0-22.698 10.163-22.698 22.7 0 12.536 10.168 22.7 22.698 22.7 12.54 0 22.7-10.164 22.7-22.7s-10.16-22.7-22.7-22.7Zm0 34.05c-6.27 0-11.35-5.083-11.35-11.35 0-6.269 5.08-11.35 11.35-11.35s11.35 5.081 11.35 11.35c0 6.267-5.08 11.35-11.35 11.35Z"/></g><mask id="N" width="1177" height="636" x="0" y="0" maskUnits="userSpaceOnUse" style="mask-type:luminance"><path fill="#fff" d="M1176.67 0H0v635.586h1176.67V0Z"/></mask><g mask="url(#N)"><path fill="#003C96" d="M1063.17 0c-12.54 0-22.7 10.163-22.7 22.699 0 12.537 10.16 22.7 22.7 22.7 12.53 0 22.7-10.163 22.7-22.7 0-12.536-10.17-22.699-22.7-22.699Zm0 34.049c-6.27 0-11.35-5.082-11.35-11.35s5.08-11.35 11.35-11.35 11.35 5.082 11.35 11.35-5.08 11.35-11.35 11.35Z"/></g><mask id="O" width="1177" height="636" x="0" y="0" maskUnits="userSpaceOnUse" style="mask-type:luminance"><path fill="#fff" d="M1176.67 0H0v635.586h1176.67V0Z"/></mask><g mask="url(#O)"><path fill="#00BE64" d="M1063.17 45.398c-12.54 0-22.7 10.163-22.7 22.7 0 12.536 10.16 22.7 22.7 22.7 12.53 0 22.7-10.164 22.7-22.7s-10.17-22.7-22.7-22.7Zm0 34.05c-6.27 0-11.35-5.083-11.35-11.35 0-6.269 5.08-11.35 11.35-11.35s11.35 5.081 11.35 11.35c0 6.267-5.08 11.35-11.35 11.35Z"/></g><mask id="P" width="1177" height="636" x="0" y="0" maskUnits="userSpaceOnUse" style="mask-type:luminance"><path fill="#fff" d="M1176.67 0H0v635.586h1176.67V0Z"/></mask><g mask="url(#P)"><path fill="#00BE64" d="M1047.89 292.195c-4.1 0-7.42 3.319-7.42 7.414 4.09 0 7.42-3.319 7.42-7.414Z"/></g><mask id="Q" width="1177" height="636" x="0" y="0" maskUnits="userSpaceOnUse" style="mask-type:luminance"><path fill="#fff" d="M1176.67 0H0v635.586h1176.67V0Z"/></mask><g mask="url(#Q)"><path fill="#00BE64" d="M1025.64 284.781c0 8.189 6.64 14.827 14.83 14.827 0-8.188-6.64-14.827-14.83-14.827Z"/></g><mask id="R" width="1177" height="636" x="0" y="0" maskUnits="userSpaceOnUse" style="mask-type:luminance"><path fill="#fff" d="M1176.67 0H0v635.586h1176.67V0Z"/></mask><g mask="url(#R)"><path fill="#FF9500" d="M1040.47 346.235c9.24-9.397 13.63-21.862 13.17-34.174-.63-16.608-25.71-16.608-26.34 0-.46 12.312 3.93 24.777 13.17 34.174Z"/></g><mask id="S" width="1177" height="636" x="0" y="0" maskUnits="userSpaceOnUse" style="mask-type:luminance"><path fill="#fff" d="M1176.67 0H0v635.586h1176.67V0Z"/></mask><g mask="url(#S)"><path fill="#fff" d="M495.681 136.195c0 25.073 20.326 45.399 45.399 45.399 0-25.072-20.326-45.399-45.399-45.399Z"/></g><mask id="T" width="1177" height="636" x="0" y="0" maskUnits="userSpaceOnUse" style="mask-type:luminance"><path fill="#fff" d="M1176.67 0H0v635.586h1176.67V0Z"/></mask><g mask="url(#T)"><path fill="#fff" d="M450.282 90.797c0 25.073 20.326 45.399 45.399 45.399 0-25.073-20.326-45.4-45.399-45.4Z"/></g><mask id="U" width="1177" height="636" x="0" y="0" maskUnits="userSpaceOnUse" style="mask-type:luminance"><path fill="#fff" d="M1176.67 0H0v635.586h1176.67V0Z"/></mask><g mask="url(#U)"><path fill="#FFB900" d="M495.681 136.196c25.073 0 45.399-20.326 45.399-45.4-25.073 0-45.399 20.327-45.399 45.4Z"/></g><mask id="V" width="1177" height="636" x="0" y="0" maskUnits="userSpaceOnUse" style="mask-type:luminance"><path fill="#fff" d="M1176.67 0H0v635.586h1176.67V0Z"/></mask><g mask="url(#V)"><path fill="#001E64" d="M450.282 181.594c25.073 0 45.398-20.326 45.398-45.399-25.073-.001-45.398 20.326-45.398 45.399Z"/></g><mask id="W" width="1177" height="636" x="0" y="0" maskUnits="userSpaceOnUse" style="mask-type:luminance"><path fill="#fff" d="M1176.67 0H0v635.586h1176.67V0Z"/></mask><g mask="url(#W)"><path fill="#fff" d="M177.888 90.797c0 25.073 20.326 45.399 45.399 45.399s45.399-20.326 45.399-45.4h-90.798Z"/></g><mask id="X" width="1177" height="636" x="0" y="0" maskUnits="userSpaceOnUse" style="mask-type:luminance"><path fill="#fff" d="M1176.67 0H0v635.586h1176.67V0Z"/></mask><g mask="url(#X)"><path fill="#00BE64" d="M268.686 181.594c0-25.073-20.326-45.399-45.399-45.399s-45.399 20.326-45.399 45.399h90.798Z"/></g><mask id="Y" width="1177" height="636" x="0" y="0" maskUnits="userSpaceOnUse" style="mask-type:luminance"><path fill="#fff" d="M1176.67 0H0v635.586h1176.67V0Z"/></mask><g mask="url(#Y)"><path fill="#fff" d="M132.489 476.688c12.536 0 22.7 10.162 22.7 22.698 0 12.538-10.164 22.7-22.7 22.7s-22.7-10.162-22.7-22.7c0-12.536 10.164-22.698 22.7-22.698Z"/></g><mask id="Z" width="1177" height="636" x="0" y="0" maskUnits="userSpaceOnUse" style="mask-type:luminance"><path fill="#fff" d="M1176.67 0H0v635.586h1176.67V0Z"/></mask><g mask="url(#Z)"><path fill="#001E64" d="M563.78 90.797c-12.536 0-22.7 10.163-22.7 22.699 0 12.537 10.164 22.7 22.7 22.7s22.7-10.163 22.7-22.7c-.001-12.537-10.165-22.7-22.7-22.7Zm0 34.049c-6.269 0-11.35-5.082-11.35-11.35s5.081-11.35 11.35-11.35c6.268 0 11.35 5.082 11.35 11.35s-5.082 11.35-11.35 11.35Z"/></g><mask id="aa" width="1177" height="636" x="0" y="0" maskUnits="userSpaceOnUse" style="mask-type:luminance"><path fill="#fff" d="M1176.67 0H0v635.586h1176.67V0Z"/></mask><g mask="url(#aa)"><path fill="#FF9500" d="M563.78 136.195c-12.536 0-22.7 10.163-22.7 22.699 0 12.537 10.164 22.7 22.7 22.7s22.7-10.163 22.7-22.7c-.001-12.537-10.165-22.699-22.7-22.699Zm0 34.049c-6.269 0-11.35-5.082-11.35-11.35s5.081-11.35 11.35-11.35c6.268 0 11.35 5.082 11.35 11.35s-5.082 11.35-11.35 11.35Z"/></g><mask id="ab" width="1177" height="636" x="0" y="0" maskUnits="userSpaceOnUse" style="mask-type:luminance"><path fill="#fff" d="M1176.67 0H0v635.586h1176.67V0Z"/></mask><g mask="url(#ab)"><path fill="#FFB900" d="M609.179 90.797c-12.536 0-22.7 10.163-22.7 22.699 0 12.537 10.164 22.7 22.7 22.7s22.7-10.163 22.7-22.7c0-12.537-10.164-22.7-22.7-22.7Zm0 34.049c-6.269 0-11.35-5.082-11.35-11.35s5.081-11.35 11.35-11.35c6.268 0 11.35 5.082 11.35 11.35s-5.082 11.35-11.35 11.35Z"/></g><mask id="ac" width="1177" height="636" x="0" y="0" maskUnits="userSpaceOnUse" style="mask-type:luminance"><path fill="#fff" d="M1176.67 0H0v635.586h1176.67V0Z"/></mask><g mask="url(#ac)"><path fill="#001E64" d="M609.179 136.195c-12.536 0-22.7 10.163-22.7 22.699 0 12.537 10.164 22.7 22.7 22.7s22.7-10.163 22.7-22.7c0-12.537-10.164-22.699-22.7-22.699Zm0 34.049c-6.269 0-11.35-5.082-11.35-11.35s5.081-11.35 11.35-11.35c6.268 0 11.35 5.082 11.35 11.35s-5.082 11.35-11.35 11.35Z"/></g><mask id="ad" width="1177" height="636" x="0" y="0" maskUnits="userSpaceOnUse" style="mask-type:luminance"><path fill="#fff" d="M1176.67 0H0v635.586h1176.67V0Z"/></mask><g mask="url(#ad)"><path fill="#FFB900" d="M722.676 363.192c25.073 0 45.399-20.327 45.399-45.4 0-25.073-20.326-45.397-45.399-45.397v90.797Z"/></g><mask id="ae" width="1177" height="636" x="0" y="0" maskUnits="userSpaceOnUse" style="mask-type:luminance"><path fill="#fff" d="M1176.67 0H0v635.586h1176.67V0Z"/></mask><g mask="url(#ae)"><path fill="#001E64" d="M813.475 272.395c-25.073 0-45.399 20.324-45.399 45.397 0 25.073 20.326 45.4 45.399 45.4v-90.797Z"/></g><mask id="af" width="1177" height="636" x="0" y="0" maskUnits="userSpaceOnUse" style="mask-type:luminance"><path fill="#fff" d="M1176.67 0H0v635.586h1176.67V0Z"/></mask><g mask="url(#af)"><path fill="#001E64" d="M904.272 181.598c0 25.073 20.326 45.399 45.399 45.399 25.072 0 45.398-20.326 45.398-45.399h-90.797Z"/></g><mask id="ag" width="1177" height="636" x="0" y="0" maskUnits="userSpaceOnUse" style="mask-type:luminance"><path fill="#fff" d="M1176.67 0H0v635.586h1176.67V0Z"/></mask><g mask="url(#ag)"><path fill="#fff" d="M995.07 272.395c0-25.073-20.326-45.399-45.398-45.399-25.073 0-45.399 20.326-45.399 45.399h90.797Z"/></g><mask id="ah" width="1177" height="636" x="0" y="0" maskUnits="userSpaceOnUse" style="mask-type:luminance"><path fill="#fff" d="M1176.67 0H0v635.586h1176.67V0Z"/></mask><g mask="url(#ah)"><path fill="#001E64" d="M926.972 363.191c-12.536 0-22.7 10.163-22.7 22.699 0 12.538 10.164 22.7 22.7 22.7s22.699-10.162 22.699-22.7c0-12.535-10.163-22.699-22.699-22.699Zm0 34.049c-6.268 0-11.35-5.081-11.35-11.35 0-6.269 5.082-11.35 11.35-11.35 6.27 0 11.351 5.081 11.351 11.35 0 6.269-5.082 11.35-11.351 11.35Z"/></g><mask id="ai" width="1177" height="636" x="0" y="0" maskUnits="userSpaceOnUse" style="mask-type:luminance"><path fill="#fff" d="M1176.67 0H0v635.586h1176.67V0Z"/></mask><g mask="url(#ai)"><path fill="#fff" d="M926.972 408.59c-12.536 0-22.7 10.163-22.7 22.698 0 12.538 10.164 22.7 22.7 22.7s22.699-10.162 22.699-22.7c0-12.535-10.163-22.698-22.699-22.698Zm0 34.049c-6.268 0-11.35-5.081-11.35-11.351 0-6.268 5.082-11.349 11.35-11.349 6.27 0 11.351 5.081 11.351 11.349-.001 6.27-5.082 11.351-11.351 11.351Z"/></g><mask id="aj" width="1177" height="636" x="0" y="0" maskUnits="userSpaceOnUse" style="mask-type:luminance"><path fill="#fff" d="M1176.67 0H0v635.586h1176.67V0Z"/></mask><g mask="url(#aj)"><path fill="#FFB900" d="M972.371 363.191c-12.536 0-22.7 10.163-22.7 22.699 0 12.538 10.164 22.7 22.7 22.7s22.7-10.162 22.7-22.7c0-12.535-10.164-22.699-22.7-22.699Zm0 34.049c-6.269 0-11.351-5.081-11.351-11.35 0-6.269 5.082-11.35 11.351-11.35 6.269 0 11.35 5.081 11.35 11.35 0 6.269-5.081 11.35-11.35 11.35Z"/></g><mask id="ak" width="1177" height="636" x="0" y="0" maskUnits="userSpaceOnUse" style="mask-type:luminance"><path fill="#fff" d="M1176.67 0H0v635.586h1176.67V0Z"/></mask><g mask="url(#ak)"><path fill="#001E64" d="M972.371 408.59c-12.536 0-22.7 10.163-22.7 22.698 0 12.538 10.164 22.7 22.7 22.7s22.7-10.162 22.7-22.7c0-12.535-10.164-22.698-22.7-22.698Zm0 34.049c-6.269 0-11.351-5.081-11.351-11.351 0-6.268 5.082-11.349 11.351-11.349 6.269 0 11.35 5.081 11.35 11.349 0 6.27-5.081 11.351-11.35 11.351Z"/></g><mask id="al" width="1177" height="636" x="0" y="0" maskUnits="userSpaceOnUse" style="mask-type:luminance"><path fill="#fff" d="M1176.67 0H0v635.586h1176.67V0Z"/></mask><g mask="url(#al)"><path fill="#00BE64" d="M13.834 602.039c4.612 10.825 15.347 18.414 27.856 18.415-4.611-10.825-15.347-18.415-27.856-18.415Z"/></g><mask id="am" width="1177" height="636" x="0" y="0" maskUnits="userSpaceOnUse" style="mask-type:luminance"><path fill="#fff" d="M1176.67 0H0v635.586h1176.67V0Z"/></mask><g mask="url(#am)"><path fill="#FFB900" d="M64.39 582.622c0 12.537-10.163 22.7-22.7 22.7-12.536 0-22.699-10.163-22.699-22.7 0-12.536 10.163-22.7 22.699-22.7 12.537 0 22.7 10.164 22.7 22.7Z"/></g><mask id="an" width="1177" height="636" x="0" y="0" maskUnits="userSpaceOnUse" style="mask-type:luminance"><path fill="#fff" d="M1176.67 0H0v635.586h1176.67V0Z"/></mask><g mask="url(#an)"><path fill="#00BE64" d="M41.691 620.455c9.189 0 17.102-5.462 20.674-13.314-9.19 0-17.103 5.461-20.674 13.314Z"/></g><mask id="ao" width="1177" height="636" x="0" y="0" maskUnits="userSpaceOnUse" style="mask-type:luminance"><path fill="#fff" d="M1176.67 0H0v635.586h1176.67V0Z"/></mask><g mask="url(#ao)"><path fill="#003C96" d="M53.041 582.62c0 6.268-5.082 11.35-11.35 11.35s-11.35-5.082-11.35-11.35 5.082-11.35 11.35-11.35 11.35 5.083 11.35 11.35Z"/></g><mask id="ap" width="1177" height="636" x="0" y="0" maskUnits="userSpaceOnUse" style="mask-type:luminance"><path fill="#fff" d="M1176.67 0H0v635.586h1176.67V0Z"/></mask><g mask="url(#ap)"><path fill="#00BE64" d="M558.622 420.441c4.612 10.825 15.347 18.414 27.856 18.415-4.611-10.824-15.347-18.415-27.856-18.415Z"/></g><mask id="aq" width="1177" height="636" x="0" y="0" maskUnits="userSpaceOnUse" style="mask-type:luminance"><path fill="#fff" d="M1176.67 0H0v635.586h1176.67V0Z"/></mask><g mask="url(#aq)"><path fill="#FFB900" d="M609.179 401.023c0 12.536-10.163 22.699-22.7 22.699-12.536 0-22.699-10.163-22.699-22.699 0-12.536 10.163-22.699 22.699-22.699 12.537 0 22.7 10.163 22.7 22.699Z"/></g><mask id="ar" width="1177" height="636" x="0" y="0" maskUnits="userSpaceOnUse" style="mask-type:luminance"><path fill="#fff" d="M1176.67 0H0v635.586h1176.67V0Z"/></mask><g mask="url(#ar)"><path fill="#00BE64" d="M586.479 438.856c9.189 0 17.102-5.462 20.673-13.313-9.189 0-17.101 5.461-20.673 13.313Z"/></g><mask id="as" width="1177" height="636" x="0" y="0" maskUnits="userSpaceOnUse" style="mask-type:luminance"><path fill="#fff" d="M1176.67 0H0v635.586h1176.67V0Z"/></mask><g mask="url(#as)"><path fill="#003C96" d="M597.829 401.023c0 6.268-5.082 11.35-11.35 11.35s-11.35-5.082-11.35-11.35c0-6.269 5.082-11.351 11.35-11.351s11.35 5.083 11.35 11.351Z"/></g><mask id="at" width="1177" height="636" x="0" y="0" maskUnits="userSpaceOnUse" style="mask-type:luminance"><path fill="#fff" d="M1176.67 0H0v635.586h1176.67V0Z"/></mask><g mask="url(#at)"><path fill="#00BE64" d="M377.026 148.047c4.612 10.825 15.347 18.415 27.856 18.415-4.611-10.824-15.346-18.415-27.856-18.415Z"/></g><mask id="au" width="1177" height="636" x="0" y="0" maskUnits="userSpaceOnUse" style="mask-type:luminance"><path fill="#fff" d="M1176.67 0H0v635.586h1176.67V0Z"/></mask><g mask="url(#au)"><path fill="#FFB900" d="M427.583 128.629c0 12.536-10.163 22.7-22.7 22.7-12.536 0-22.699-10.164-22.699-22.7s10.163-22.699 22.699-22.699c12.537 0 22.7 10.163 22.7 22.699Z"/></g><mask id="av" width="1177" height="636" x="0" y="0" maskUnits="userSpaceOnUse" style="mask-type:luminance"><path fill="#fff" d="M1176.67 0H0v635.586h1176.67V0Z"/></mask><g mask="url(#av)"><path fill="#00BE64" d="M404.883 166.461c9.19 0 17.103-5.461 20.674-13.313-9.189-.001-17.102 5.461-20.674 13.313Z"/></g><mask id="aw" width="1177" height="636" x="0" y="0" maskUnits="userSpaceOnUse" style="mask-type:luminance"><path fill="#fff" d="M1176.67 0H0v635.586h1176.67V0Z"/></mask><g mask="url(#aw)"><path fill="#003C96" d="M416.233 128.631c0 6.268-5.082 11.35-11.35 11.35s-11.35-5.082-11.35-11.35c0-6.269 5.082-11.35 11.35-11.35s11.35 5.081 11.35 11.35Z"/></g><mask id="ax" width="1177" height="636" x="0" y="0" maskUnits="userSpaceOnUse" style="mask-type:luminance"><path fill="#fff" d="M1176.67 0H0v635.586h1176.67V0Z"/></mask><g mask="url(#ax)"><path fill="#00BE64" d="M1103.41 148.047c4.61 10.825 15.35 18.415 27.86 18.415-4.62-10.824-15.35-18.415-27.86-18.415Z"/></g><mask id="ay" width="1177" height="636" x="0" y="0" maskUnits="userSpaceOnUse" style="mask-type:luminance"><path fill="#fff" d="M1176.67 0H0v635.586h1176.67V0Z"/></mask><g mask="url(#ay)"><path fill="#FFB900" d="M1153.97 128.629c0 12.536-10.17 22.7-22.7 22.7-12.54 0-22.7-10.164-22.7-22.7s10.16-22.699 22.7-22.699c12.53 0 22.7 10.163 22.7 22.699Z"/></g><mask id="az" width="1177" height="636" x="0" y="0" maskUnits="userSpaceOnUse" style="mask-type:luminance"><path fill="#fff" d="M1176.67 0H0v635.586h1176.67V0Z"/></mask><g mask="url(#az)"><path fill="#00BE64" d="M1131.27 166.462c9.19 0 17.1-5.461 20.67-13.314-9.19 0-17.1 5.461-20.67 13.314Z"/></g><mask id="aA" width="1177" height="636" x="0" y="0" maskUnits="userSpaceOnUse" style="mask-type:luminance"><path fill="#fff" d="M1176.67 0H0v635.586h1176.67V0Z"/></mask><g mask="url(#aA)"><path fill="#003C96" d="M1142.62 128.631c0 6.269-5.08 11.35-11.35 11.35s-11.35-5.081-11.35-11.35c0-6.268 5.08-11.35 11.35-11.35s11.35 5.082 11.35 11.35Z"/></g><mask id="aB" width="1177" height="636" x="0" y="0" maskUnits="userSpaceOnUse" style="mask-type:luminance"><path fill="#fff" d="M1176.67 0H0v635.586h1176.67V0Z"/></mask><g mask="url(#aB)"><path fill="#00BE64" d="M921.814 511.238c4.612 10.824 15.347 18.415 27.855 18.415-4.609-10.825-15.346-18.414-27.855-18.415Z"/></g><mask id="aC" width="1177" height="636" x="0" y="0" maskUnits="userSpaceOnUse" style="mask-type:luminance"><path fill="#fff" d="M1176.67 0H0v635.586h1176.67V0Z"/></mask><g mask="url(#aC)"><path fill="#FFB900" d="M972.371 491.821c0 12.537-10.163 22.7-22.7 22.7-12.536 0-22.699-10.163-22.699-22.7 0-12.536 10.163-22.7 22.699-22.7 12.537 0 22.7 10.164 22.7 22.7Z"/></g><mask id="aD" width="1177" height="636" x="0" y="0" maskUnits="userSpaceOnUse" style="mask-type:luminance"><path fill="#fff" d="M1176.67 0H0v635.586h1176.67V0Z"/></mask><g mask="url(#aD)"><path fill="#00BE64" d="M949.672 529.654c9.189 0 17.102-5.461 20.673-13.314-9.189 0-17.102 5.462-20.673 13.314Z"/></g><mask id="aE" width="1177" height="636" x="0" y="0" maskUnits="userSpaceOnUse" style="mask-type:luminance"><path fill="#fff" d="M1176.67 0H0v635.586h1176.67V0Z"/></mask><g mask="url(#aE)"><path fill="#003C96" d="M961.021 491.824c0 6.269-5.082 11.35-11.351 11.35-6.269 0-11.35-5.081-11.35-11.35 0-6.269 5.081-11.351 11.35-11.351 6.269 0 11.351 5.083 11.351 11.351Z"/></g><mask id="aF" width="1177" height="636" x="0" y="0" maskUnits="userSpaceOnUse" style="mask-type:luminance"><path fill="#fff" d="M1176.67 0H0v635.586h1176.67V0Z"/></mask><g mask="url(#aF)"><path fill="#001E64" d="M586.479 317.793c0 25.072 20.326 45.398 45.399 45.398 0-25.073-20.326-45.398-45.399-45.398Z"/></g><mask id="aG" width="1177" height="636" x="0" y="0" maskUnits="userSpaceOnUse" style="mask-type:luminance"><path fill="#fff" d="M1176.67 0H0v635.586h1176.67V0Z"/></mask><g mask="url(#aG)"><path fill="#00BE64" d="M541.08 272.395c0 25.073 20.326 45.399 45.399 45.399 0-25.073-20.326-45.399-45.399-45.399Z"/></g><mask id="aH" width="1177" height="636" x="0" y="0" maskUnits="userSpaceOnUse" style="mask-type:luminance"><path fill="#fff" d="M1176.67 0H0v635.586h1176.67V0Z"/></mask><g mask="url(#aH)"><path fill="#001E64" d="M586.479 317.793c25.073 0 45.399-20.326 45.399-45.398-25.073 0-45.399 20.325-45.399 45.398Z"/></g><mask id="aI" width="1177" height="636" x="0" y="0" maskUnits="userSpaceOnUse" style="mask-type:luminance"><path fill="#fff" d="M1176.67 0H0v635.586h1176.67V0Z"/></mask><g mask="url(#aI)"><path fill="#FFB900" d="M541.08 363.192c25.073 0 45.399-20.326 45.399-45.399-25.073 0-45.399 20.326-45.399 45.399Z"/></g><mask id="aJ" width="1177" height="636" x="0" y="0" maskUnits="userSpaceOnUse" style="mask-type:luminance"><path fill="#fff" d="M1176.67 0H0v635.586h1176.67V0Z"/></mask><g mask="url(#aJ)"><path fill="#001E64" d="M677.277 544.787c25.073 0 45.399-20.327 45.399-45.4 0-25.073-20.326-45.399-45.399-45.399s-45.399 20.326-45.399 45.399 20.326 45.4 45.399 45.4Zm0-68.1c12.536 0 22.7 10.162 22.7 22.699s-10.164 22.7-22.7 22.7-22.7-10.163-22.7-22.7c0-12.537 10.164-22.699 22.7-22.699Z"/></g><mask id="aK" width="1177" height="636" x="0" y="0" maskUnits="userSpaceOnUse" style="mask-type:luminance"><path fill="#fff" d="M1176.67 0H0v635.586h1176.67V0Z"/></mask><g mask="url(#aK)"><path fill="#FFB900" d="M223.287 590.188c0 25.072 20.326 45.398 45.399 45.398 0-25.072-20.326-45.398-45.399-45.398Z"/></g><mask id="aL" width="1177" height="636" x="0" y="0" maskUnits="userSpaceOnUse" style="mask-type:luminance"><path fill="#fff" d="M1176.67 0H0v635.586h1176.67V0Z"/></mask><g mask="url(#aL)"><path fill="#001E64" d="M177.888 544.789c0 25.073 20.326 45.398 45.399 45.398 0-25.072-20.326-45.398-45.399-45.398Z"/></g><mask id="aM" width="1177" height="636" x="0" y="0" maskUnits="userSpaceOnUse" style="mask-type:luminance"><path fill="#fff" d="M1176.67 0H0v635.586h1176.67V0Z"/></mask><g mask="url(#aM)"><path fill="#001E64" d="M223.287 590.188c25.073 0 45.399-20.326 45.399-45.399-25.074-.001-45.399 20.325-45.399 45.399Z"/></g><mask id="aN" width="1177" height="636" x="0" y="0" maskUnits="userSpaceOnUse" style="mask-type:luminance"><path fill="#fff" d="M1176.67 0H0v635.586h1176.67V0Z"/></mask><g mask="url(#aN)"><path fill="#00BE64" d="M177.888 635.586c25.073 0 45.399-20.326 45.399-45.398-25.073 0-45.399 20.326-45.399 45.398Z"/></g><mask id="aO" width="1177" height="636" x="0" y="0" maskUnits="userSpaceOnUse" style="mask-type:luminance"><path fill="#fff" d="M1176.67 0H0v635.586h1176.67V0Z"/></mask><g mask="url(#aO)"><path fill="#FF9500" d="M87.09 181.595c50.147 0 90.798-40.652 90.798-90.798-50.146-.001-90.798 40.65-90.798 90.798Z"/></g><mask id="aP" width="1177" height="636" x="0" y="0" maskUnits="userSpaceOnUse" style="mask-type:luminance"><path fill="#fff" d="M1176.67 0H0v635.586h1176.67V0Z"/></mask><g mask="url(#aP)"><path fill="#001E64" d="M314.085 295.094c12.536 0 22.699 10.163 22.699 22.7 0 12.536-10.163 22.698-22.699 22.698-12.536 0-22.7-10.162-22.7-22.698 0-12.537 10.164-22.7 22.7-22.7Z"/></g><mask id="aQ" width="1177" height="636" x="0" y="0" maskUnits="userSpaceOnUse" style="mask-type:luminance"><path fill="#fff" d="M1176.67 0H0v635.586h1176.67V0Z"/></mask><g mask="url(#aQ)"><path fill="#fff" d="M314.085 226.997c0-25.073-20.326-45.399-45.399-45.399 0 25.072 20.326 45.399 45.399 45.399Z"/></g><mask id="aR" width="1177" height="636" x="0" y="0" maskUnits="userSpaceOnUse" style="mask-type:luminance"><path fill="#fff" d="M1176.67 0H0v635.586h1176.67V0Z"/></mask><g mask="url(#aR)"><path fill="#FFB900" d="M359.484 272.395c0-25.073-20.326-45.399-45.399-45.399 0 25.073 20.326 45.399 45.399 45.399Z"/></g><mask id="aS" width="1177" height="636" x="0" y="0" maskUnits="userSpaceOnUse" style="mask-type:luminance"><path fill="#fff" d="M1176.67 0H0v635.586h1176.67V0Z"/></mask><g mask="url(#aS)"><path fill="#001E64" d="M314.085 226.996c-25.073 0-45.399 20.326-45.399 45.399 25.073 0 45.399-20.327 45.399-45.399Z"/></g><mask id="aT" width="1177" height="636" x="0" y="0" maskUnits="userSpaceOnUse" style="mask-type:luminance"><path fill="#fff" d="M1176.67 0H0v635.586h1176.67V0Z"/></mask><g mask="url(#aT)"><path fill="#001E64" d="M359.484 181.598c-25.073 0-45.399 20.326-45.399 45.399 25.073 0 45.399-20.327 45.399-45.399Z"/></g><mask id="aU" width="1177" height="636" x="0" y="0" maskUnits="userSpaceOnUse" style="mask-type:luminance"><path fill="#fff" d="M1176.67 0H0v635.586h1176.67V0Z"/></mask><g mask="url(#aU)"><path fill="#00BE64" d="M450.282 453.988c25.073 0 45.399-20.326 45.399-45.399 0-25.072-20.326-45.398-45.399-45.398v90.797Z"/></g><mask id="aV" width="1177" height="636" x="0" y="0" maskUnits="userSpaceOnUse" style="mask-type:luminance"><path fill="#fff" d="M1176.67 0H0v635.586h1176.67V0Z"/></mask><g mask="url(#aV)"><path fill="#fff" d="M541.08 363.191c-25.073 0-45.399 20.326-45.399 45.398 0 25.073 20.326 45.399 45.399 45.399v-90.797Z"/></g><mask id="aW" width="1177" height="636" x="0" y="0" maskUnits="userSpaceOnUse" style="mask-type:luminance"><path fill="#fff" d="M1176.67 0H0v635.586h1176.67V0Z"/></mask><g mask="url(#aW)"><path fill="#FFB900" d="M813.475 453.988c25.073 0 45.399-20.326 45.399-45.399 0-25.072-20.326-45.398-45.399-45.398v90.797Z"/></g><mask id="aX" width="1177" height="636" x="0" y="0" maskUnits="userSpaceOnUse" style="mask-type:luminance"><path fill="#fff" d="M1176.67 0H0v635.586h1176.67V0Z"/></mask><g mask="url(#aX)"><path fill="#00BE64" d="M904.272 363.191c-25.073 0-45.399 20.326-45.399 45.398 0 25.073 20.326 45.399 45.399 45.399v-90.797Z"/></g><mask id="aY" width="1177" height="636" x="0" y="0" maskUnits="userSpaceOnUse" style="mask-type:luminance"><path fill="#fff" d="M1176.67 0H0v635.586h1176.67V0Z"/></mask><g mask="url(#aY)"><path fill="#FFB900" d="M314.085 408.588c0-25.071-20.326-45.397-45.399-45.397 0 25.073 20.326 45.397 45.399 45.397Z"/></g><mask id="aZ" width="1177" height="636" x="0" y="0" maskUnits="userSpaceOnUse" style="mask-type:luminance"><path fill="#fff" d="M1176.67 0H0v635.586h1176.67V0Z"/></mask><g mask="url(#aZ)"><path fill="#FFB900" d="M359.484 453.989c0-25.073-20.326-45.399-45.399-45.399 0 25.073 20.326 45.399 45.399 45.399Z"/></g><mask id="ba" width="1177" height="636" x="0" y="0" maskUnits="userSpaceOnUse" style="mask-type:luminance"><path fill="#fff" d="M1176.67 0H0v635.586h1176.67V0Z"/></mask><g mask="url(#ba)"><path fill="#FF9500" d="M314.085 408.59c-25.073 0-45.399 20.326-45.399 45.399 25.073 0 45.399-20.326 45.399-45.399Z"/></g><mask id="bb" width="1177" height="636" x="0" y="0" maskUnits="userSpaceOnUse" style="mask-type:luminance"><path fill="#fff" d="M1176.67 0H0v635.586h1176.67V0Z"/></mask><g mask="url(#bb)"><path fill="#00BE64" d="M359.484 363.191c-25.073 0-45.399 20.326-45.399 45.398 25.073.001 45.399-20.324 45.399-45.398Z"/></g><mask id="bc" width="1177" height="636" x="0" y="0" maskUnits="userSpaceOnUse" style="mask-type:luminance"><path fill="#fff" d="M1176.67 0H0v635.586h1176.67V0Z"/></mask><g mask="url(#bc)"><path fill="#00BE64" d="M41.691 272.396c25.073 0 45.399-20.325 45.399-45.398 0-25.073-20.326-45.4-45.399-45.4s-45.399 20.327-45.399 45.4c0 25.073 20.326 45.398 45.399 45.398Zm0-68.099c12.536 0 22.7 10.163 22.7 22.7 0 12.536-10.164 22.699-22.7 22.699s-22.7-10.163-22.7-22.699c0-12.537 10.164-22.7 22.7-22.7Z"/></g><mask id="bd" width="1177" height="636" x="0" y="0" maskUnits="userSpaceOnUse" style="mask-type:luminance"><path fill="#fff" d="M1176.67 0H0v635.586h1176.67V0Z"/></mask><g mask="url(#bd)"><path fill="#fff" d="M858.874 363.193c25.073 0 45.399-20.326 45.399-45.398 0-25.073-20.326-45.4-45.399-45.4s-45.399 20.327-45.399 45.4c0 25.072 20.325 45.398 45.399 45.398Zm0-68.098c12.536 0 22.7 10.163 22.7 22.7 0 12.536-10.164 22.698-22.7 22.698s-22.7-10.162-22.7-22.698c-.001-12.537 10.163-22.7 22.7-22.7Z"/></g><mask id="be" width="1177" height="636" x="0" y="0" maskUnits="userSpaceOnUse" style="mask-type:luminance"><path fill="#fff" d="M1176.67 0H0v635.586h1176.67V0Z"/></mask><g mask="url(#be)"><path fill="#FFB900" d="M132.489 226.996c0 25.073 20.326 45.399 45.399 45.399 0-25.074-20.326-45.399-45.399-45.399Z"/></g><mask id="bf" width="1177" height="636" x="0" y="0" maskUnits="userSpaceOnUse" style="mask-type:luminance"><path fill="#fff" d="M1176.67 0H0v635.586h1176.67V0Z"/></mask><g mask="url(#bf)"><path fill="#FF9500" d="M87.09 181.598c0 25.073 20.326 45.399 45.399 45.399 0-25.074-20.326-45.399-45.399-45.399Z"/></g><mask id="bg" width="1177" height="636" x="0" y="0" maskUnits="userSpaceOnUse" style="mask-type:luminance"><path fill="#fff" d="M1176.67 0H0v635.586h1176.67V0Z"/></mask><g mask="url(#bg)"><path fill="#001E64" d="M132.489 226.997c25.073 0 45.399-20.326 45.399-45.399-25.073 0-45.399 20.325-45.399 45.399Z"/></g><mask id="bh" width="1177" height="636" x="0" y="0" maskUnits="userSpaceOnUse" style="mask-type:luminance"><path fill="#fff" d="M1176.67 0H0v635.586h1176.67V0Z"/></mask><g mask="url(#bh)"><path fill="#FFB900" d="M87.09 272.395c25.073 0 45.399-20.325 45.399-45.399-25.073-.001-45.399 20.325-45.399 45.399Z"/></g><mask id="bi" width="1177" height="636" x="0" y="0" maskUnits="userSpaceOnUse" style="mask-type:luminance"><path fill="#fff" d="M1176.67 0H0v635.586h1176.67V0Z"/></mask><g mask="url(#bi)"><path fill="#001E64" d="M87.09 453.988H-3.708v90.798H87.09v-90.798Z"/></g><mask id="bj" width="1177" height="636" x="0" y="0" maskUnits="userSpaceOnUse" style="mask-type:luminance"><path fill="#fff" d="M1176.67 0H0v635.586h1176.67V0Z"/></mask><g mask="url(#bj)"><path fill="#fff" d="M-3.708 499.391v22.699c12.536 0 22.7 10.162 22.7 22.699h22.699c0-25.073-20.326-45.398-45.399-45.398Z"/></g><mask id="bk" width="1177" height="636" x="0" y="0" maskUnits="userSpaceOnUse" style="mask-type:luminance"><path fill="#fff" d="M1176.67 0H0v635.586h1176.67V0Z"/></mask><g mask="url(#bk)"><path fill="#FFB900" d="M-3.708 476.688v22.699c25.073 0 45.399-20.326 45.399-45.399H18.992c0 12.537-10.164 22.7-22.7 22.7Z"/></g><mask id="bl" width="1177" height="636" x="0" y="0" maskUnits="userSpaceOnUse" style="mask-type:luminance"><path fill="#fff" d="M1176.67 0H0v635.586h1176.67V0Z"/></mask><g mask="url(#bl)"><path fill="#003C96" d="M64.39 453.988h-22.7c0 25.073 20.327 45.399 45.4 45.399v-22.699c-12.537 0-22.7-10.164-22.7-22.7Z"/></g><mask id="bm" width="1177" height="636" x="0" y="0" maskUnits="userSpaceOnUse" style="mask-type:luminance"><path fill="#fff" d="M1176.67 0H0v635.586h1176.67V0Z"/></mask><g mask="url(#bm)"><path fill="#003C96" d="M87.09 522.091v-22.7c-25.073 0-45.399 20.327-45.399 45.4H64.39c0-12.538 10.164-22.7 22.7-22.7Z"/></g><mask id="bn" width="1177" height="636" x="0" y="0" maskUnits="userSpaceOnUse" style="mask-type:luminance"><path fill="#fff" d="M1176.67 0H0v635.586h1176.67V0Z"/></mask><g mask="url(#bn)"><path fill="#00BE64" d="M495.681 612.886c-12.536 0-22.7-10.162-22.7-22.7 0-12.536 10.164-22.698 22.7-22.698s22.7 10.162 22.7 22.698c0 12.538-10.164 22.7-22.7 22.7Z"/></g><mask id="bo" width="1177" height="636" x="0" y="0" maskUnits="userSpaceOnUse" style="mask-type:luminance"><path fill="#fff" d="M1176.67 0H0v635.586h1176.67V0Z"/></mask><g mask="url(#bo)"><path fill="#FF9500" d="M541.08 453.988c-50.147 0-90.798 40.651-90.798 90.798 50.147 0 90.798-40.652 90.798-90.798Z"/></g><mask id="bp" width="1177" height="636" x="0" y="0" maskUnits="userSpaceOnUse" style="mask-type:luminance"><path fill="#fff" d="M1176.67 0H0v635.586h1176.67V0Z"/></mask><g mask="url(#bp)"><path fill="#FFB900" d="M677.277 431.29c-12.536 0-22.7-10.163-22.7-22.699 0-12.538 10.164-22.7 22.7-22.7s22.7 10.162 22.7 22.7c0 12.536-10.164 22.699-22.7 22.699Z"/></g><mask id="bq" width="1177" height="636" x="0" y="0" maskUnits="userSpaceOnUse" style="mask-type:luminance"><path fill="#fff" d="M1176.67 0H0v635.586h1176.67V0Z"/></mask><g mask="url(#bq)"><path fill="#FFB900" d="M699.977 635.586c12.536 0 22.7-10.162 22.7-22.699 0-12.536-10.164-22.699-22.7-22.699s-22.7 10.163-22.7 22.699c0 12.537 10.163 22.699 22.7 22.699Zm0-34.05c6.268 0 11.35 5.083 11.35 11.351 0 6.269-5.082 11.35-11.35 11.35-6.269 0-11.35-5.081-11.35-11.35-.001-6.268 5.081-11.351 11.35-11.351Z"/></g><mask id="br" width="1177" height="636" x="0" y="0" maskUnits="userSpaceOnUse" style="mask-type:luminance"><path fill="#fff" d="M1176.67 0H0v635.586h1176.67V0Z"/></mask><g mask="url(#br)"><path fill="#00BE64" d="M699.977 590.188c12.536 0 22.7-10.162 22.7-22.699s-10.164-22.7-22.7-22.7-22.7 10.163-22.7 22.7c0 12.537 10.163 22.699 22.7 22.699Zm0-34.05c6.268 0 11.35 5.082 11.35 11.351 0 6.268-5.082 11.35-11.35 11.35-6.269 0-11.35-5.082-11.35-11.35-.001-6.269 5.081-11.351 11.35-11.351Z"/></g><mask id="bs" width="1177" height="636" x="0" y="0" maskUnits="userSpaceOnUse" style="mask-type:luminance"><path fill="#fff" d="M1176.67 0H0v635.586h1176.67V0Z"/></mask><g mask="url(#bs)"><path fill="#fff" d="M654.578 635.586c12.536 0 22.7-10.162 22.7-22.699 0-12.536-10.164-22.699-22.7-22.699s-22.699 10.163-22.699 22.699c0 12.537 10.163 22.699 22.699 22.699Zm0-34.05c6.268 0 11.35 5.083 11.35 11.351 0 6.269-5.082 11.35-11.35 11.35-6.269 0-11.35-5.081-11.35-11.35 0-6.268 5.081-11.351 11.35-11.351Z"/></g><mask id="bt" width="1177" height="636" x="0" y="0" maskUnits="userSpaceOnUse" style="mask-type:luminance"><path fill="#fff" d="M1176.67 0H0v635.586h1176.67V0Z"/></mask><g mask="url(#bt)"><path fill="#001E64" d="M654.578 590.188c12.536 0 22.7-10.162 22.7-22.699s-10.164-22.7-22.7-22.7-22.699 10.163-22.699 22.7c0 12.537 10.163 22.699 22.699 22.699Zm0-34.05c6.268 0 11.35 5.082 11.35 11.351 0 6.268-5.082 11.35-11.35 11.35-6.269 0-11.35-5.082-11.35-11.35 0-6.269 5.081-11.351 11.35-11.351Z"/></g><mask id="bu" width="1177" height="636" x="0" y="0" maskUnits="userSpaceOnUse" style="mask-type:luminance"><path fill="#fff" d="M1176.67 0H0v635.586h1176.67V0Z"/></mask><g mask="url(#bu)"><path fill="#001E64" d="M245.986 453.989c12.536 0 22.7-10.162 22.7-22.699s-10.164-22.7-22.7-22.7-22.7 10.163-22.7 22.7c0 12.537 10.164 22.699 22.7 22.699Zm0-34.049c6.269 0 11.35 5.082 11.35 11.35s-5.081 11.349-11.35 11.349c-6.268 0-11.35-5.081-11.35-11.349s5.082-11.35 11.35-11.35Z"/></g><mask id="bv" width="1177" height="636" x="0" y="0" maskUnits="userSpaceOnUse" style="mask-type:luminance"><path fill="#fff" d="M1176.67 0H0v635.586h1176.67V0Z"/></mask><g mask="url(#bv)"><path fill="#fff" d="M245.986 408.589c12.536 0 22.7-10.162 22.7-22.699s-10.164-22.699-22.7-22.699-22.7 10.162-22.7 22.699 10.164 22.699 22.7 22.699Zm0-34.049c6.269 0 11.35 5.082 11.35 11.35 0 6.269-5.081 11.35-11.35 11.35-6.268 0-11.35-5.081-11.35-11.35 0-6.268 5.082-11.35 11.35-11.35Z"/></g><mask id="bw" width="1177" height="636" x="0" y="0" maskUnits="userSpaceOnUse" style="mask-type:luminance"><path fill="#fff" d="M1176.67 0H0v635.586h1176.67V0Z"/></mask><g mask="url(#bw)"><path fill="#fff" d="M200.587 453.989c12.536 0 22.7-10.162 22.7-22.699s-10.164-22.7-22.7-22.7-22.7 10.163-22.7 22.7c0 12.537 10.164 22.699 22.7 22.699Zm0-34.049c6.269 0 11.35 5.082 11.35 11.35s-5.081 11.349-11.35 11.349c-6.268 0-11.35-5.081-11.35-11.349s5.082-11.35 11.35-11.35Z"/></g><mask id="bx" width="1177" height="636" x="0" y="0" maskUnits="userSpaceOnUse" style="mask-type:luminance"><path fill="#fff" d="M1176.67 0H0v635.586h1176.67V0Z"/></mask><g mask="url(#bx)"><path fill="#00BE64" d="M200.587 408.589c12.536 0 22.7-10.162 22.7-22.699s-10.164-22.699-22.7-22.699-22.7 10.162-22.7 22.699 10.164 22.699 22.7 22.699Zm0-34.049c6.269 0 11.35 5.082 11.35 11.35 0 6.269-5.081 11.35-11.35 11.35-6.268 0-11.35-5.081-11.35-11.35 0-6.268 5.082-11.35 11.35-11.35Z"/></g><mask id="by" width="1177" height="636" x="0" y="0" maskUnits="userSpaceOnUse" style="mask-type:luminance"><path fill="#fff" d="M1176.67 0H0v635.586h1176.67V0Z"/></mask><g mask="url(#by)"><path fill="#FFB900" d="M41.691 374.543c0 25.072 20.326 45.397 45.399 45.397s45.399-20.325 45.399-45.397H41.691Z"/></g><mask id="bz" width="1177" height="636" x="0" y="0" maskUnits="userSpaceOnUse" style="mask-type:luminance"><path fill="#fff" d="M1176.67 0H0v635.586h1176.67V0Z"/></mask><g mask="url(#bz)"><path fill="#fff" d="M132.489 351.844c-12.536 0-22.7-10.163-22.7-22.7 0-12.537 10.164-22.699 22.7-22.699s22.7 10.162 22.7 22.699-10.164 22.7-22.7 22.7Z"/></g><mask id="bA" width="1177" height="636" x="0" y="0" maskUnits="userSpaceOnUse" style="mask-type:luminance"><path fill="#fff" d="M1176.67 0H0v635.586h1176.67V0Z"/></mask><g mask="url(#bA)"><path fill="#fff" d="M41.691 351.844c-12.536 0-22.7-10.163-22.7-22.7 0-12.537 10.164-22.699 22.7-22.699s22.7 10.162 22.7 22.699-10.164 22.7-22.7 22.7Z"/></g><mask id="bB" width="1177" height="636" x="0" y="0" maskUnits="userSpaceOnUse" style="mask-type:luminance"><path fill="#fff" d="M1176.67 0H0v635.586h1176.67V0Z"/></mask><g mask="url(#bB)"><path fill="#FF9500" d="M904.272 136.194c25.073 20.177 65.725 20.177 90.798 0-25.073-20.176-65.724-20.176-90.798 0Z"/></g><mask id="bC" width="1177" height="636" x="0" y="0" maskUnits="userSpaceOnUse" style="mask-type:luminance"><path fill="#fff" d="M1176.67 0H0v635.586h1176.67V0Z"/></mask><g mask="url(#bC)"><path fill="#FFB900" d="M904.272 105.93c25.073 20.177 65.725 20.177 90.798 0-25.073-20.177-65.724-20.177-90.798 0Z"/></g><mask id="bD" width="1177" height="636" x="0" y="0" maskUnits="userSpaceOnUse" style="mask-type:luminance"><path fill="#fff" d="M1176.67 0H0v635.586h1176.67V0Z"/></mask><g mask="url(#bD)"><path fill="#fff" d="M904.272 166.461c25.073 20.177 65.725 20.177 90.798 0-25.073-20.177-65.724-20.176-90.798 0Z"/></g><mask id="bE" width="1177" height="636" x="0" y="0" maskUnits="userSpaceOnUse" style="mask-type:luminance"><path fill="#fff" d="M1176.67 0H0v635.586h1176.67V0Z"/></mask><g mask="url(#bE)"><path fill="#FFB900" d="M941.729 346.146h15.886l6.357-45.681h-28.6l6.357 45.681Z"/></g><mask id="bF" width="1177" height="636" x="0" y="0" maskUnits="userSpaceOnUse" style="mask-type:luminance"><path fill="#fff" d="M1176.67 0H0v635.586h1176.67V0Z"/></mask><g mask="url(#bF)"><path fill="#fff" d="m956.153 290.763-1.35 9.704h4.583l1.264-9.079h13.745v-4.54H960.65a4.542 4.542 0 0 0-4.497 3.915Z"/></g><mask id="bG" width="1177" height="636" x="0" y="0" maskUnits="userSpaceOnUse" style="mask-type:luminance"><path fill="#fff" d="M1176.67 0H0v635.586h1176.67V0Z"/></mask><g mask="url(#bG)"><path fill="#003C96" d="M904.271 0h-90.797v90.798h90.797V0Z"/></g><mask id="bH" width="1177" height="636" x="0" y="0" maskUnits="userSpaceOnUse" style="mask-type:luminance"><path fill="#fff" d="M1176.67 0H0v635.586h1176.67V0Z"/></mask><g mask="url(#bH)"><path fill="#FF9500" d="M858.874 29.555c8.75 0 15.842 7.093 15.842 15.842 0 8.75-7.092 15.843-15.842 15.843-8.749 0-15.843-7.093-15.843-15.843-.001-8.75 7.094-15.842 15.843-15.842Z"/></g><mask id="bI" width="1177" height="636" x="0" y="0" maskUnits="userSpaceOnUse" style="mask-type:luminance"><path fill="#fff" d="M1176.67 0H0v635.586h1176.67V0Z"/></mask><g mask="url(#bI)"><path fill="#FFB900" d="M858.873 17.344a2.725 2.725 0 0 0-2.724 2.724v4.048a2.725 2.725 0 0 0 5.448 0v-4.048a2.724 2.724 0 0 0-2.724-2.724Zm0 46.617a2.725 2.725 0 0 0-2.724 2.724v4.048a2.725 2.725 0 0 0 5.448 0v-4.048a2.723 2.723 0 0 0-2.724-2.724Zm-18.56-18.56a2.723 2.723 0 0 0-2.724-2.724h-4.048a2.723 2.723 0 1 0 0 5.448h4.048a2.725 2.725 0 0 0 2.724-2.724Zm43.893-2.724h-4.048a2.724 2.724 0 1 0 0 5.448h4.048a2.725 2.725 0 0 0 0-5.448Zm-41.32-17.116a2.724 2.724 0 0 0-3.851 3.853l2.863 2.863a2.715 2.715 0 0 0 1.926.797 2.723 2.723 0 0 0 1.925-4.65l-2.863-2.863Zm32.964 32.964a2.725 2.725 0 0 0-3.853 3.85l2.863 2.864c.532.532 1.23.798 1.926.798a2.724 2.724 0 0 0 1.927-4.649l-2.863-2.863Zm-33.952 0-2.863 2.863a2.722 2.722 0 0 0 1.926 4.649c.697 0 1.393-.266 1.925-.798l2.863-2.863a2.72 2.72 0 0 0 0-3.851 2.722 2.722 0 0 0-3.851 0Zm32.026-25.451c.697 0 1.395-.266 1.926-.797l2.863-2.863a2.725 2.725 0 0 0-3.853-3.853l-2.863 2.863a2.726 2.726 0 0 0 0 3.853c.532.532 1.23.797 1.927.797Z"/></g><mask id="bJ" width="1177" height="636" x="0" y="0" maskUnits="userSpaceOnUse" style="mask-type:luminance"><path fill="#fff" d="M1176.67 0H0v635.586h1176.67V0Z"/></mask><g mask="url(#bJ)"><path fill="#001E64" d="M541.08 181.594h-90.798v90.798h90.798v-90.798Z"/></g><mask id="bK" width="1177" height="636" x="0" y="0" maskUnits="userSpaceOnUse" style="mask-type:luminance"><path fill="#fff" d="M1176.67 0H0v635.586h1176.67V0Z"/></mask><g mask="url(#bK)"><path fill="#003C96" d="M450.282 181.594h-90.798v90.798h90.798v-90.798Z"/></g><mask id="bL" width="1177" height="636" x="0" y="0" maskUnits="userSpaceOnUse" style="mask-type:luminance"><path fill="#fff" d="M1176.67 0H0v635.586h1176.67V0Z"/></mask><g mask="url(#bL)"><path fill="#003C96" d="M495.681 249.696c-12.536 0-22.7-10.163-22.7-22.7 0-12.536 10.164-22.699 22.7-22.699s22.7 10.163 22.7 22.699c0 12.537-10.164 22.7-22.7 22.7Z"/></g><mask id="bM" width="1177" height="636" x="0" y="0" maskUnits="userSpaceOnUse" style="mask-type:luminance"><path fill="#fff" d="M1176.67 0H0v635.586h1176.67V0Z"/></mask><g mask="url(#bM)"><path fill="#FF9500" d="M404.883 211.152c8.749 0 15.842 7.093 15.842 15.842 0 8.75-7.093 15.843-15.842 15.843-8.75 0-15.843-7.093-15.843-15.843 0-8.749 7.093-15.842 15.843-15.842Z"/></g><mask id="bN" width="1177" height="636" x="0" y="0" maskUnits="userSpaceOnUse" style="mask-type:luminance"><path fill="#fff" d="M1176.67 0H0v635.586h1176.67V0Z"/></mask><g mask="url(#bN)"><path fill="#FFB900" d="M404.882 198.938a2.724 2.724 0 0 0-2.724 2.723v4.049a2.725 2.725 0 0 0 5.448 0v-4.049a2.723 2.723 0 0 0-2.724-2.723Zm0 46.616a2.725 2.725 0 0 0-2.724 2.724v4.049a2.725 2.725 0 0 0 5.448 0v-4.049a2.723 2.723 0 0 0-2.724-2.724Zm-18.56-18.56a2.723 2.723 0 0 0-2.724-2.724h-4.048a2.723 2.723 0 1 0 0 5.448h4.048a2.724 2.724 0 0 0 2.724-2.724Zm43.893-2.724h-4.048a2.724 2.724 0 1 0 0 5.448h4.048a2.725 2.725 0 0 0 0-5.448Zm-41.319-17.115a2.724 2.724 0 0 0-3.851 3.853l2.863 2.863a2.715 2.715 0 0 0 1.926.797 2.723 2.723 0 0 0 1.925-4.65l-2.863-2.863Zm32.963 32.963a2.725 2.725 0 0 0-3.853 3.852l2.863 2.862a2.718 2.718 0 0 0 3.853 0 2.724 2.724 0 0 0 0-3.851l-2.863-2.863Zm-33.952 0-2.863 2.863a2.722 2.722 0 0 0 1.926 4.65c.697 0 1.393-.267 1.925-.799l2.863-2.862a2.724 2.724 0 0 0-3.851-3.852Zm32.027-25.45c.697 0 1.395-.266 1.926-.797l2.863-2.863a2.725 2.725 0 0 0-3.853-3.853l-2.863 2.863a2.726 2.726 0 0 0 0 3.853 2.715 2.715 0 0 0 1.927.797Z"/></g><mask id="bO" width="1177" height="636" x="0" y="0" maskUnits="userSpaceOnUse" style="mask-type:luminance"><path fill="#fff" d="M1176.67 0H0v635.586h1176.67V0Z"/></mask><g mask="url(#bO)"><path fill="#FFB900" d="M711.326 68.096c0-6.269-5.081-11.35-11.35-11.35-6.268 0-11.349 5.081-11.349 11.35 0 6.268 5.081 11.35 11.349 11.35 6.269 0 11.35-5.082 11.35-11.35Z"/></g><mask id="bP" width="1177" height="636" x="0" y="0" maskUnits="userSpaceOnUse" style="mask-type:luminance"><path fill="#fff" d="M1176.67 0H0v635.586h1176.67V0Z"/></mask><g mask="url(#bP)"><path fill="#00BE64" d="M643.228 22.698c0 6.268 5.081 11.35 11.35 11.35 6.267 0 11.35-5.082 11.35-11.35 0-6.27-5.083-11.35-11.35-11.35-6.269 0-11.35 5.08-11.35 11.35Z"/></g><mask id="bQ" width="1177" height="636" x="0" y="0" maskUnits="userSpaceOnUse" style="mask-type:luminance"><path fill="#fff" d="M1176.67 0H0v635.586h1176.67V0Z"/></mask><g mask="url(#bQ)"><path fill="#00BE64" d="M699.977 11.348c-6.269 0-11.35 5.08-11.35 11.35 0 6.268 5.081 11.35 11.35 11.35 6.268 0 11.35-5.082 11.35-11.35 0-6.27-5.082-11.35-11.35-11.35Z"/></g><mask id="bR" width="1177" height="636" x="0" y="0" maskUnits="userSpaceOnUse" style="mask-type:luminance"><path fill="#fff" d="M1176.67 0H0v635.586h1176.67V0Z"/></mask><g mask="url(#bR)"><path fill="#FFB900" d="M677.277 34.05c-6.268 0-11.35 5.082-11.35 11.35 0 6.269 5.082 11.35 11.35 11.35 6.269 0 11.35-5.081 11.35-11.35 0-6.268-5.081-11.35-11.35-11.35Z"/></g><mask id="bS" width="1177" height="636" x="0" y="0" maskUnits="userSpaceOnUse" style="mask-type:luminance"><path fill="#fff" d="M1176.67 0H0v635.586h1176.67V0Z"/></mask><g mask="url(#bS)"><path fill="#FFB900" d="M654.577 79.446c6.269 0 11.35-5.082 11.35-11.35s-5.081-11.35-11.35-11.35c-6.268 0-11.35 5.082-11.35 11.35s5.082 11.35 11.35 11.35Z"/></g><mask id="bT" width="1177" height="636" x="0" y="0" maskUnits="userSpaceOnUse" style="mask-type:luminance"><path fill="#fff" d="M1176.67 0H0v635.586h1176.67V0Z"/></mask><g mask="url(#bT)"><path fill="#FFB900" d="M620.528 522.088c0-6.27-5.081-11.35-11.35-11.35-6.268 0-11.35 5.08-11.35 11.35 0 6.268 5.082 11.35 11.35 11.35 6.269 0 11.35-5.083 11.35-11.35Z"/></g><mask id="bU" width="1177" height="636" x="0" y="0" maskUnits="userSpaceOnUse" style="mask-type:luminance"><path fill="#fff" d="M1176.67 0H0v635.586h1176.67V0Z"/></mask><g mask="url(#bU)"><path fill="#FFB900" d="M552.431 476.69c0 6.269 5.081 11.351 11.35 11.351 6.267 0 11.349-5.082 11.349-11.351 0-6.269-5.082-11.35-11.349-11.35-6.27.001-11.35 5.082-11.35 11.35Z"/></g><mask id="bV" width="1177" height="636" x="0" y="0" maskUnits="userSpaceOnUse" style="mask-type:luminance"><path fill="#fff" d="M1176.67 0H0v635.586h1176.67V0Z"/></mask><g mask="url(#bV)"><path fill="#FF9500" d="M609.179 465.34c-6.269 0-11.35 5.081-11.35 11.35 0 6.269 5.081 11.351 11.35 11.351 6.268 0 11.35-5.082 11.35-11.351 0-6.269-5.082-11.35-11.35-11.35Z"/></g><mask id="bW" width="1177" height="636" x="0" y="0" maskUnits="userSpaceOnUse" style="mask-type:luminance"><path fill="#fff" d="M1176.67 0H0v635.586h1176.67V0Z"/></mask><g mask="url(#bW)"><path fill="#FF9500" d="M586.479 488.039c-6.268 0-11.35 5.081-11.35 11.351 0 6.268 5.082 11.35 11.35 11.35 6.269 0 11.35-5.082 11.35-11.35 0-6.27-5.081-11.351-11.35-11.351Z"/></g><mask id="bX" width="1177" height="636" x="0" y="0" maskUnits="userSpaceOnUse" style="mask-type:luminance"><path fill="#fff" d="M1176.67 0H0v635.586h1176.67V0Z"/></mask><g mask="url(#bX)"><path fill="#fff" d="M563.78 533.439c6.269 0 11.35-5.082 11.35-11.35 0-6.269-5.081-11.351-11.35-11.351-6.268 0-11.35 5.082-11.35 11.351 0 6.267 5.082 11.35 11.35 11.35Z"/></g><mask id="bY" width="1177" height="636" x="0" y="0" maskUnits="userSpaceOnUse" style="mask-type:luminance"><path fill="#fff" d="M1176.67 0H0v635.586h1176.67V0Z"/></mask><g mask="url(#bY)"><path fill="#00BE64" d="M1165.32 612.885c0-6.268-5.09-11.35-11.35-11.35-6.27 0-11.35 5.082-11.35 11.35 0 6.269 5.08 11.351 11.35 11.351 6.26 0 11.35-5.083 11.35-11.351Z"/></g><mask id="bZ" width="1177" height="636" x="0" y="0" maskUnits="userSpaceOnUse" style="mask-type:luminance"><path fill="#fff" d="M1176.67 0H0v635.586h1176.67V0Z"/></mask><g mask="url(#bZ)"><path fill="#00BE64" d="M1097.22 567.488c0 6.268 5.08 11.35 11.35 11.35s11.35-5.082 11.35-11.35c0-6.269-5.08-11.351-11.35-11.351-6.27.001-11.35 5.083-11.35 11.351Z"/></g><mask id="ca" width="1177" height="636" x="0" y="0" maskUnits="userSpaceOnUse" style="mask-type:luminance"><path fill="#fff" d="M1176.67 0H0v635.586h1176.67V0Z"/></mask><g mask="url(#ca)"><path fill="#00BE64" d="M1153.97 556.137c-6.27 0-11.35 5.082-11.35 11.351 0 6.268 5.08 11.35 11.35 11.35s11.35-5.082 11.35-11.35c0-6.269-5.08-11.351-11.35-11.351Z"/></g><mask id="cb" width="1177" height="636" x="0" y="0" maskUnits="userSpaceOnUse" style="mask-type:luminance"><path fill="#fff" d="M1176.67 0H0v635.586h1176.67V0Z"/></mask><g mask="url(#cb)"><path fill="#FFB900" d="M1131.27 578.836c-6.27 0-11.35 5.082-11.35 11.35s5.08 11.35 11.35 11.35 11.35-5.082 11.35-11.35-5.08-11.35-11.35-11.35Z"/></g><mask id="cc" width="1177" height="636" x="0" y="0" maskUnits="userSpaceOnUse" style="mask-type:luminance"><path fill="#fff" d="M1176.67 0H0v635.586h1176.67V0Z"/></mask><g mask="url(#cc)"><path fill="#00BE64" d="M1108.57 624.235c6.27 0 11.35-5.082 11.35-11.35 0-6.269-5.08-11.35-11.35-11.35s-11.35 5.081-11.35 11.35c0 6.268 5.08 11.35 11.35 11.35Z"/></g><mask id="cd" width="1177" height="636" x="0" y="0" maskUnits="userSpaceOnUse" style="mask-type:luminance"><path fill="#fff" d="M1176.67 0H0v635.586h1176.67V0Z"/></mask><g mask="url(#cd)"><path fill="#fff" d="M892.923 158.897c0-6.269-5.082-11.35-11.35-11.35-6.269 0-11.35 5.081-11.35 11.35 0 6.268 5.081 11.35 11.35 11.35 6.268 0 11.35-5.082 11.35-11.35Z"/></g><mask id="ce" width="1177" height="636" x="0" y="0" maskUnits="userSpaceOnUse" style="mask-type:luminance"><path fill="#fff" d="M1176.67 0H0v635.586h1176.67V0Z"/></mask><g mask="url(#ce)"><path fill="#fff" d="M824.824 113.498c0 6.268 5.082 11.35 11.35 11.35s11.35-5.082 11.35-11.35c0-6.269-5.082-11.35-11.35-11.35s-11.35 5.081-11.35 11.35Z"/></g><mask id="cf" width="1177" height="636" x="0" y="0" maskUnits="userSpaceOnUse" style="mask-type:luminance"><path fill="#fff" d="M1176.67 0H0v635.586h1176.67V0Z"/></mask><g mask="url(#cf)"><path fill="#FFB900" d="M881.573 102.148c-6.268 0-11.35 5.081-11.35 11.35 0 6.268 5.082 11.35 11.35 11.35 6.269 0 11.35-5.082 11.35-11.35 0-6.269-5.081-11.35-11.35-11.35Z"/></g><mask id="cg" width="1177" height="636" x="0" y="0" maskUnits="userSpaceOnUse" style="mask-type:luminance"><path fill="#fff" d="M1176.67 0H0v635.586h1176.67V0Z"/></mask><g mask="url(#cg)"><path fill="#fff" d="M858.874 124.848c-6.269 0-11.35 5.081-11.35 11.35 0 6.268 5.081 11.35 11.35 11.35 6.268 0 11.35-5.082 11.35-11.35 0-6.269-5.082-11.35-11.35-11.35Z"/></g><mask id="ch" width="1177" height="636" x="0" y="0" maskUnits="userSpaceOnUse" style="mask-type:luminance"><path fill="#fff" d="M1176.67 0H0v635.586h1176.67V0Z"/></mask><g mask="url(#ch)"><path fill="#003C96" d="M836.174 170.247c6.268 0 11.35-5.082 11.35-11.35s-5.082-11.35-11.35-11.35c-6.269 0-11.35 5.082-11.35 11.35s5.081 11.35 11.35 11.35Z"/></g><mask id="ci" width="1177" height="636" x="0" y="0" maskUnits="userSpaceOnUse" style="mask-type:luminance"><path fill="#fff" d="M1176.67 0H0v635.586h1176.67V0Z"/></mask><g mask="url(#ci)"><path fill="#FF9500" d="M404.883 453.989c20.177-25.073 20.177-65.725 0-90.798-20.177 25.074-20.177 65.725 0 90.798Z"/></g><mask id="cj" width="1177" height="636" x="0" y="0" maskUnits="userSpaceOnUse" style="mask-type:luminance"><path fill="#fff" d="M1176.67 0H0v635.586h1176.67V0Z"/></mask><g mask="url(#cj)"><path fill="#001E64" d="M374.617 453.989c20.178-25.073 20.177-65.725 0-90.798-20.177 25.074-20.177 65.725 0 90.798Z"/></g><mask id="ck" width="1177" height="636" x="0" y="0" maskUnits="userSpaceOnUse" style="mask-type:luminance"><path fill="#fff" d="M1176.67 0H0v635.586h1176.67V0Z"/></mask><g mask="url(#ck)"><path fill="#001E64" d="M435.149 453.989c20.177-25.073 20.177-65.725 0-90.798-20.178 25.074-20.177 65.725 0 90.798Z"/></g><mask id="cl" width="1177" height="636" x="0" y="0" maskUnits="userSpaceOnUse" style="mask-type:luminance"><path fill="#fff" d="M1176.67 0H0v635.586h1176.67V0Z"/></mask><g mask="url(#cl)"><path fill="#001E64" d="M631.878 317.793v22.7c12.536 0 22.699 10.163 22.699 22.699h22.7c0-25.073-20.326-45.399-45.399-45.399Z"/></g><mask id="cm" width="1177" height="636" x="0" y="0" maskUnits="userSpaceOnUse" style="mask-type:luminance"><path fill="#fff" d="M1176.67 0H0v635.586h1176.67V0Z"/></mask><g mask="url(#cm)"><path fill="#001E64" d="M631.878 295.095v22.7c25.073 0 45.399-20.327 45.399-45.4h-22.7c0 12.538-10.163 22.7-22.699 22.7Z"/></g><mask id="cn" width="1177" height="636" x="0" y="0" maskUnits="userSpaceOnUse" style="mask-type:luminance"><path fill="#fff" d="M1176.67 0H0v635.586h1176.67V0Z"/></mask><g mask="url(#cn)"><path fill="#001E64" d="M699.977 272.395h-22.7c0 25.072 20.327 45.397 45.4 45.397v-22.698c-12.537 0-22.7-10.163-22.7-22.699Z"/></g><mask id="co" width="1177" height="636" x="0" y="0" maskUnits="userSpaceOnUse" style="mask-type:luminance"><path fill="#fff" d="M1176.67 0H0v635.586h1176.67V0Z"/></mask><g mask="url(#co)"><path fill="#001E64" d="M722.676 340.492v-22.699c-25.073 0-45.399 20.327-45.399 45.399h22.699c0-12.537 10.164-22.7 22.7-22.7Z"/></g><mask id="cp" width="1177" height="636" x="0" y="0" maskUnits="userSpaceOnUse" style="mask-type:luminance"><path fill="#fff" d="M1176.67 0H0v635.586h1176.67V0Z"/></mask><g mask="url(#cp)"><path fill="#001E64" d="M177.887 499.391v22.699c12.536 0 22.7 10.162 22.7 22.699h22.699c0-25.073-20.326-45.398-45.399-45.398Z"/></g><mask id="cq" width="1177" height="636" x="0" y="0" maskUnits="userSpaceOnUse" style="mask-type:luminance"><path fill="#fff" d="M1176.67 0H0v635.586h1176.67V0Z"/></mask><g mask="url(#cq)"><path fill="#FF9500" d="M177.887 476.688v22.699c25.073 0 45.399-20.326 45.399-45.399h-22.699c0 12.537-10.164 22.7-22.7 22.7Z"/></g><mask id="cr" width="1177" height="636" x="0" y="0" maskUnits="userSpaceOnUse" style="mask-type:luminance"><path fill="#fff" d="M1176.67 0H0v635.586h1176.67V0Z"/></mask><g mask="url(#cr)"><path fill="#001E64" d="M245.985 453.988h-22.7c0 25.073 20.327 45.399 45.4 45.399v-22.699c-12.537 0-22.7-10.164-22.7-22.7Z"/></g><mask id="cs" width="1177" height="636" x="0" y="0" maskUnits="userSpaceOnUse" style="mask-type:luminance"><path fill="#fff" d="M1176.67 0H0v635.586h1176.67V0Z"/></mask><g mask="url(#cs)"><path fill="#fff" d="M268.685 522.091v-22.7c-25.073 0-45.399 20.327-45.399 45.4h22.699c0-12.538 10.164-22.7 22.7-22.7Z"/></g><mask id="ct" width="1177" height="636" x="0" y="0" maskUnits="userSpaceOnUse" style="mask-type:luminance"><path fill="#fff" d="M1176.67 0H0v635.586h1176.67V0Z"/></mask><g mask="url(#ct)"><path fill="#FF9500" d="M1131.27 363.193c20.18-25.072 20.18-65.726 0-90.798-20.18 25.073-20.18 65.725 0 90.798Z"/></g><mask id="cu" width="1177" height="636" x="0" y="0" maskUnits="userSpaceOnUse" style="mask-type:luminance"><path fill="#fff" d="M1176.67 0H0v635.586h1176.67V0Z"/></mask><g mask="url(#cu)"><path fill="#00BE64" d="M1101 363.193c20.18-25.072 20.18-65.726 0-90.798-20.18 25.073-20.18 65.725 0 90.798Z"/></g><mask id="cv" width="1177" height="636" x="0" y="0" maskUnits="userSpaceOnUse" style="mask-type:luminance"><path fill="#fff" d="M1176.67 0H0v635.586h1176.67V0Z"/></mask><g mask="url(#cv)"><path fill="#fff" d="M1161.53 363.193c20.18-25.072 20.18-65.726 0-90.798-20.17 25.073-20.17 65.725 0 90.798Z"/></g><mask id="cw" width="1177" height="636" x="0" y="0" maskUnits="userSpaceOnUse" style="mask-type:luminance"><path fill="#fff" d="M1176.67 0H0v635.586h1176.67V0Z"/></mask><g mask="url(#cw)"><path fill="#001E64" d="M1176.67 45.398c-25.08-20.177-65.73-20.177-90.8 0 25.07 20.177 65.72 20.177 90.8 0Z"/></g><mask id="cx" width="1177" height="636" x="0" y="0" maskUnits="userSpaceOnUse" style="mask-type:luminance"><path fill="#fff" d="M1176.67 0H0v635.586h1176.67V0Z"/></mask><g mask="url(#cx)"><path fill="#001E64" d="M1176.67 75.664c-25.08-20.177-65.73-20.177-90.8 0 25.07 20.178 65.72 20.178 90.8 0Z"/></g><mask id="cy" width="1177" height="636" x="0" y="0" maskUnits="userSpaceOnUse" style="mask-type:luminance"><path fill="#fff" d="M1176.67 0H0v635.586h1176.67V0Z"/></mask><g mask="url(#cy)"><path fill="#FF9500" d="M1176.67 15.133c-25.08-20.177-65.73-20.177-90.8 0 25.07 20.178 65.72 20.177 90.8 0Z"/></g><mask id="cz" width="1177" height="636" x="0" y="0" maskUnits="userSpaceOnUse" style="mask-type:luminance"><path fill="#fff" d="M1176.67 0H0v635.586h1176.67V0Z"/></mask><g mask="url(#cz)"><path fill="#FF9500" d="M62 118.337c-5.366-5.366-14.067-5.366-19.434 0l-.875.874-.875-.874c-5.366-5.366-14.067-5.366-19.434 0-5.367 5.367-5.367 14.068-.001 19.434l.875.875 19.435 19.435 19.435-19.435.874-.875c5.367-5.366 5.367-14.067 0-19.434Z"/></g><mask id="cA" width="1177" height="636" x="0" y="0" maskUnits="userSpaceOnUse" style="mask-type:luminance"><path fill="#fff" d="M1176.67 0H0v635.586h1176.67V0Z"/></mask><g mask="url(#cA)"><path fill="#fff" d="M298.242 122.295c0 8.75 7.093 15.843 15.843 15.843s15.843-7.093 15.843-15.843c0-8.749-7.093-15.842-15.843-15.842s-15.843 7.093-15.843 15.842Z"/></g><mask id="cB" width="1177" height="636" x="0" y="0" maskUnits="userSpaceOnUse" style="mask-type:luminance"><path fill="#fff" d="M1176.67 0H0v635.586h1176.67V0Z"/></mask><g mask="url(#cB)"><path fill="#FFB900" d="m302.102 132.66 11.984 32.922 11.982-32.922h-23.966Z"/></g><mask id="cC" width="1177" height="636" x="0" y="0" maskUnits="userSpaceOnUse" style="mask-type:luminance"><path fill="#fff" d="M1176.67 0H0v635.586h1176.67V0Z"/></mask><g mask="url(#cC)"><path fill="#FFB900" d="m509.771 324.309 7.74-8.597c1.739-1.932.735-5.021-1.806-5.562l-11.316-2.403-5.783-10.019c-1.301-2.252-4.549-2.252-5.848 0l-5.784 10.019-11.315 2.403c-2.542.541-3.547 3.63-1.808 5.562l7.741 8.597-1.209 11.505c-.272 2.585 2.356 4.494 4.731 3.438l10.568-4.705 10.568 4.705c2.373 1.057 5.002-.853 4.73-3.438l-1.209-11.505Z"/></g><mask id="cD" width="1177" height="636" x="0" y="0" maskUnits="userSpaceOnUse" style="mask-type:luminance"><path fill="#fff" d="M1176.67 0H0v635.586h1176.67V0Z"/></mask><g mask="url(#cD)"><path fill="#fff" d="M813.388 555.754c0 21.781 17.657 39.438 39.438 39.438 0-21.781-17.656-39.438-39.438-39.438Z"/></g><mask id="cE" width="1177" height="636" x="0" y="0" maskUnits="userSpaceOnUse" style="mask-type:luminance"><path fill="#fff" d="M1176.67 0H0v635.586h1176.67V0Z"/></mask><g mask="url(#cE)"><path fill="#FF9500" d="M752.017 494.383c0 33.894 27.476 61.37 61.37 61.37 0-33.895-27.476-61.37-61.37-61.37Z"/></g><mask id="cF" width="1177" height="636" x="0" y="0" maskUnits="userSpaceOnUse" style="mask-type:luminance"><path fill="#fff" d="M1176.67 0H0v635.586h1176.67V0Z"/></mask><g mask="url(#cF)"><path fill="#FF9500" d="M813.388 555.754c33.894 0 61.37-27.477 61.37-61.371-33.894 0-61.37 27.477-61.37 61.371Z"/></g><mask id="cG" width="1177" height="636" x="0" y="0" maskUnits="userSpaceOnUse" style="mask-type:luminance"><path fill="#fff" d="M1176.67 0H0v635.586h1176.67V0Z"/></mask><g mask="url(#cG)"><path fill="#fff" d="M773.95 595.192c21.781 0 39.438-17.656 39.438-39.438-21.781.001-39.438 17.658-39.438 39.438Z"/></g><mask id="cH" width="1177" height="636" x="0" y="0" maskUnits="userSpaceOnUse" style="mask-type:luminance"><path fill="#fff" d="M1176.67 0H0v635.586h1176.67V0Z"/></mask><g mask="url(#cH)"><path fill="#fff" d="M823.261 504.443a4.54 4.54 0 1 1 0-9.08 4.54 4.54 0 0 1 0 9.08Z"/></g><mask id="cI" width="1177" height="636" x="0" y="0" maskUnits="userSpaceOnUse" style="mask-type:luminance"><path fill="#fff" d="M1176.67 0H0v635.586h1176.67V0Z"/></mask><g mask="url(#cI)"><path fill="#fff" d="M803.515 504.443a4.54 4.54 0 1 1 .001-9.081 4.54 4.54 0 0 1-.001 9.081Z"/></g><mask id="cJ" width="1177" height="636" x="0" y="0" maskUnits="userSpaceOnUse" style="mask-type:luminance"><path fill="#fff" d="M1176.67 0H0v635.586h1176.67V0Z"/></mask><g mask="url(#cJ)"><path fill="#00BE64" d="M666.962 205.297c9.222 21.65 30.694 36.83 55.712 36.83-9.221-21.65-30.694-36.829-55.712-36.83Z"/></g><mask id="cK" width="1177" height="636" x="0" y="0" maskUnits="userSpaceOnUse" style="mask-type:luminance"><path fill="#fff" d="M1176.67 0H0v635.586h1176.67V0Z"/></mask><g mask="url(#cK)"><path fill="#FFB900" d="M768.075 166.462c0 25.073-20.326 45.399-45.399 45.399s-45.399-20.326-45.399-45.399 20.326-45.4 45.399-45.4 45.399 20.328 45.399 45.4Z"/></g><mask id="cL" width="1177" height="636" x="0" y="0" maskUnits="userSpaceOnUse" style="mask-type:luminance"><path fill="#fff" d="M1176.67 0H0v635.586h1176.67V0Z"/></mask><g mask="url(#cL)"><path fill="#00BE64" d="M722.677 242.127c18.378 0 34.204-10.921 41.347-26.627-18.379.001-34.205 10.922-41.347 26.627Z"/></g><mask id="cM" width="1177" height="636" x="0" y="0" maskUnits="userSpaceOnUse" style="mask-type:luminance"><path fill="#fff" d="M1176.67 0H0v635.586h1176.67V0Z"/></mask><g mask="url(#cM)"><path fill="#003C96" d="M745.376 166.462c0 12.536-10.163 22.699-22.7 22.699-12.536 0-22.699-10.163-22.699-22.699 0-12.536 10.163-22.7 22.699-22.7 12.537.001 22.7 10.165 22.7 22.7Z"/></g><mask id="cN" width="1177" height="636" x="0" y="0" maskUnits="userSpaceOnUse" style="mask-type:luminance"><path fill="#fff" d="M1176.67 0H0v635.586h1176.67V0Z"/></mask><g mask="url(#cN)"><path fill="#00BE64" d="M578.536 255.349h15.887l6.355-45.681H572.18l6.356 45.681Z"/></g><mask id="cO" width="1177" height="636" x="0" y="0" maskUnits="userSpaceOnUse" style="mask-type:luminance"><path fill="#fff" d="M1176.67 0H0v635.586h1176.67V0Z"/></mask><g mask="url(#cO)"><path fill="#fff" d="m592.961 199.965-1.35 9.705h4.583l1.264-9.079h13.745v-4.54h-13.745a4.54 4.54 0 0 0-4.497 3.914Z"/></g><mask id="cP" width="1177" height="636" x="0" y="0" maskUnits="userSpaceOnUse" style="mask-type:luminance"><path fill="#fff" d="M1176.67 0H0v635.586h1176.67V0Z"/></mask><g mask="url(#cP)"><path fill="#AA2332" d="M768.075 427.18c8.36 0 16.19-2.247 22.941-6.152l-22.941-39.739-22.94 39.739a45.662 45.662 0 0 0 22.94 6.152Z"/></g><mask id="cQ" width="1177" height="636" x="0" y="0" maskUnits="userSpaceOnUse" style="mask-type:luminance"><path fill="#fff" d="M1176.67 0H0v635.586h1176.67V0Z"/></mask><g mask="url(#cQ)"><path fill="#00BE64" d="M768.075 427.179a45.667 45.667 0 0 1-22.94-6.152L741.687 427a52.527 52.527 0 0 0 26.388 7.076A52.527 52.527 0 0 0 794.463 427l-3.448-5.973a45.662 45.662 0 0 1-22.94 6.152Z"/></g><mask id="cR" width="1177" height="636" x="0" y="0" maskUnits="userSpaceOnUse" style="mask-type:luminance"><path fill="#fff" d="M1176.67 0H0v635.586h1176.67V0Z"/></mask><g mask="url(#cR)"><path fill="#550014" d="M762.408 415.537a2.27 2.27 0 1 1-4.54 0 2.27 2.27 0 0 1 4.54 0Z"/></g><mask id="cS" width="1177" height="636" x="0" y="0" maskUnits="userSpaceOnUse" style="mask-type:luminance"><path fill="#fff" d="M1176.67 0H0v635.586h1176.67V0Z"/></mask><g mask="url(#cS)"><path fill="#550014" d="M778.283 415.537a2.27 2.27 0 1 1-4.54 0 2.27 2.27 0 0 1 4.54 0Z"/></g><mask id="cT" width="1177" height="636" x="0" y="0" maskUnits="userSpaceOnUse" style="mask-type:luminance"><path fill="#fff" d="M1176.67 0H0v635.586h1176.67V0Z"/></mask><g mask="url(#cT)"><path fill="#550014" d="M770.345 401.787a2.27 2.27 0 1 1-4.54 0 2.27 2.27 0 1 1 4.54 0Z"/></g><mask id="cU" width="1177" height="636" x="0" y="0" maskUnits="userSpaceOnUse" style="mask-type:luminance"><path fill="#fff" d="M1176.67 0H0v635.586h1176.67V0Z"/></mask><g mask="url(#cU)"><path fill="#FF9500" d="M193.295 307.645c0 5.605 4.543 10.148 10.148 10.148 0-5.604-4.544-10.148-10.148-10.148Z"/></g><mask id="cV" width="1177" height="636" x="0" y="0" maskUnits="userSpaceOnUse" style="mask-type:luminance"><path fill="#fff" d="M1176.67 0H0v635.586h1176.67V0Z"/></mask><g mask="url(#cV)"><path fill="#FF9500" d="M193.295 327.94c5.604 0 10.148-4.543 10.148-10.147-5.605 0-10.148 4.544-10.148 10.147Z"/></g><mask id="cW" width="1177" height="636" x="0" y="0" maskUnits="userSpaceOnUse" style="mask-type:luminance"><path fill="#fff" d="M1176.67 0H0v635.586h1176.67V0Z"/></mask><g mask="url(#cW)"><path fill="#fff" d="M253.279 317.791c-13.762-13.529-36.075-13.529-49.838 0 13.763 13.53 36.076 13.53 49.838 0Z"/></g><mask id="cX" width="1177" height="636" x="0" y="0" maskUnits="userSpaceOnUse" style="mask-type:luminance"><path fill="#fff" d="M1176.67 0H0v635.586h1176.67V0Z"/></mask><g mask="url(#cX)"><path fill="#001E64" d="M243.805 315.525a2.27 2.27 0 1 1-4.54 0 2.27 2.27 0 0 1 4.54 0Z"/></g><mask id="cY" width="1177" height="636" x="0" y="0" maskUnits="userSpaceOnUse" style="mask-type:luminance"><path fill="#fff" d="M1176.67 0H0v635.586h1176.67V0Z"/></mask><g mask="url(#cY)"><path fill="#AA2332" d="M866.425 239.734h-15.104c-7.036 0-12.74-5.703-12.74-12.739 0-7.035 5.704-12.741 12.74-12.741h15.104c7.036 0 12.739 5.706 12.739 12.741.001 7.037-5.703 12.739-12.739 12.739Z"/></g><mask id="cZ" width="1177" height="636" x="0" y="0" maskUnits="userSpaceOnUse" style="mask-type:luminance"><path fill="#fff" d="M1176.67 0H0v635.586h1176.67V0Z"/></mask><g mask="url(#cZ)"><path fill="#fff" d="M891.461 214.262c-6.83.233-12.296 5.845-12.296 12.732s5.466 12.497 12.296 12.73v-25.462Z"/></g><mask id="da" width="1177" height="636" x="0" y="0" maskUnits="userSpaceOnUse" style="mask-type:luminance"><path fill="#fff" d="M1176.67 0H0v635.586h1176.67V0Z"/></mask><g mask="url(#da)"><path fill="#fff" d="M826.285 239.728c6.83-.233 12.296-5.845 12.296-12.732s-5.466-12.497-12.296-12.73v25.462Z"/></g><mask id="db" width="1177" height="636" x="0" y="0" maskUnits="userSpaceOnUse" style="mask-type:luminance"><path fill="#fff" d="M1176.67 0H0v635.586h1176.67V0Z"/></mask><g mask="url(#db)"><path fill="#FFB900" d="M969.711 592.039c0-11.066-8.973-20.039-20.039-20.039-11.068 0-20.04 8.973-20.04 20.039 0 11.067 8.972 20.039 20.04 20.039 11.066 0 20.039-8.972 20.039-20.039Z"/></g><mask id="dc" width="1177" height="636" x="0" y="0" maskUnits="userSpaceOnUse" style="mask-type:luminance"><path fill="#fff" d="M1176.67 0H0v635.586h1176.67V0Z"/></mask><g mask="url(#dc)"><path fill="#00BE64" d="M949.671 572.003c8.189 0 14.828-6.639 14.828-14.827-8.189 0-14.828 6.637-14.828 14.827Z"/></g><mask id="dd" width="1177" height="636" x="0" y="0" maskUnits="userSpaceOnUse" style="mask-type:luminance"><path fill="#fff" d="M1176.67 0H0v635.586h1176.67V0Z"/></mask><g mask="url(#dd)"><path fill="#fff" d="M225.438 194.27c-13.183 0-23.87 10.687-23.87 23.87h23.87v-23.87Z"/></g><mask id="de" width="1177" height="636" x="0" y="0" maskUnits="userSpaceOnUse" style="mask-type:luminance"><path fill="#fff" d="M1176.67 0H0v635.586h1176.67V0Z"/></mask><g mask="url(#de)"><path fill="#fff" d="M201.567 218.141c0 13.183 10.687 23.87 23.87 23.87 13.183 0 23.87-10.687 23.87-23.87h-47.74Z"/></g><mask id="df" width="1177" height="636" x="0" y="0" maskUnits="userSpaceOnUse" style="mask-type:luminance"><path fill="#fff" d="M1176.67 0H0v635.586h1176.67V0Z"/></mask><g mask="url(#df)"><path fill="#FF9500" d="M219.747 249.146a6.245 6.245 0 1 1-12.49-.001 6.245 6.245 0 0 1 12.49.001Z"/></g><mask id="dg" width="1177" height="636" x="0" y="0" maskUnits="userSpaceOnUse" style="mask-type:luminance"><path fill="#fff" d="M1176.67 0H0v635.586h1176.67V0Z"/></mask><g mask="url(#dg)"><path fill="#FF9500" d="M243.617 249.146a6.245 6.245 0 1 1-12.49-.001 6.245 6.245 0 0 1 12.49.001Z"/></g><mask id="dh" width="1177" height="636" x="0" y="0" maskUnits="userSpaceOnUse" style="mask-type:luminance"><path fill="#fff" d="M1176.67 0H0v635.586h1176.67V0Z"/></mask><g mask="url(#dh)"><path fill="#FFB900" d="M164.04 572.555a2.27 2.27 0 1 1-4.54.002 2.27 2.27 0 0 1 4.54-.002Z"/></g><mask id="di" width="1177" height="636" x="0" y="0" maskUnits="userSpaceOnUse" style="mask-type:luminance"><path fill="#fff" d="M1176.67 0H0v635.586h1176.67V0Z"/></mask><g mask="url(#di)"><path fill="#AA2332" d="M144.057 580.371a25.498 25.498 0 0 0-11.569 2.766 25.49 25.49 0 0 0-11.568-2.766c-8.081 0-15.278 3.744-19.983 9.58 7.429 9.215 18.793 15.125 31.551 15.125 12.759 0 24.123-5.91 31.552-15.125-4.705-5.836-11.902-9.58-19.983-9.58Z"/></g><mask id="dj" width="1177" height="636" x="0" y="0" maskUnits="userSpaceOnUse" style="mask-type:luminance"><path fill="#fff" d="M1176.67 0H0v635.586h1176.67V0Z"/></mask><g mask="url(#dj)"><path fill="#fff" d="M602.321 45.373c0 8.75-7.093 15.842-15.843 15.842s-15.843-7.092-15.843-15.842c0-8.749 7.093-15.842 15.843-15.842s15.843 7.093 15.843 15.842Z"/></g><mask id="dk" width="1177" height="636" x="0" y="0" maskUnits="userSpaceOnUse" style="mask-type:luminance"><path fill="#fff" d="M1176.67 0H0v635.586h1176.67V0Z"/></mask><g mask="url(#dk)"><path fill="#00BE64" d="M592.884 59.863h-12.81v6.59a6.406 6.406 0 1 0 12.81 0v-6.59Z"/></g><mask id="dl" width="1177" height="636" x="0" y="0" maskUnits="userSpaceOnUse" style="mask-type:luminance"><path fill="#fff" d="M1176.67 0H0v635.586h1176.67V0Z"/></mask><g mask="url(#dl)"><path fill="#fff" d="M589.373 20.832a2.894 2.894 0 1 1-5.789 0 2.894 2.894 0 0 1 5.789 0Z"/></g><mask id="dm" width="1177" height="636" x="0" y="0" maskUnits="userSpaceOnUse" style="mask-type:luminance"><path fill="#fff" d="M1176.67 0H0v635.586h1176.67V0Z"/></mask><g mask="url(#dm)"><path fill="#fff" d="M611.022 48.269a2.895 2.895 0 1 1 .001-5.79 2.895 2.895 0 0 1-.001 5.79Z"/></g><mask id="dn" width="1177" height="636" x="0" y="0" maskUnits="userSpaceOnUse" style="mask-type:luminance"><path fill="#fff" d="M1176.67 0H0v635.586h1176.67V0Z"/></mask><g mask="url(#dn)"><path fill="#fff" d="M561.935 42.48a2.895 2.895 0 1 1 0 5.79 2.895 2.895 0 0 1 0-5.79Z"/></g><mask id="do" width="1177" height="636" x="0" y="0" maskUnits="userSpaceOnUse" style="mask-type:luminance"><path fill="#fff" d="M1176.67 0H0v635.586h1176.67V0Z"/></mask><g mask="url(#do)"><path fill="#fff" d="M571.17 25.973a2.893 2.893 0 1 1-4.092 4.091 2.893 2.893 0 0 1 4.092-4.091Z"/></g><mask id="dp" width="1177" height="636" x="0" y="0" maskUnits="userSpaceOnUse" style="mask-type:luminance"><path fill="#fff" d="M1176.67 0H0v635.586h1176.67V0Z"/></mask><g mask="url(#dp)"><path fill="#fff" d="M605.88 30.065a2.893 2.893 0 1 1-4.092-4.092 2.893 2.893 0 0 1 4.092 4.092Z"/></g><mask id="dq" width="1177" height="636" x="0" y="0" maskUnits="userSpaceOnUse" style="mask-type:luminance"><path fill="#fff" d="M1176.67 0H0v635.586h1176.67V0Z"/></mask><g mask="url(#dq)"><path fill="#fff" d="M575.58 619.182a3.472 3.472 0 0 0 3.471-3.471v-29.367h-6.94v29.367a3.47 3.47 0 0 0 3.469 3.471Z"/></g><mask id="dr" width="1177" height="636" x="0" y="0" maskUnits="userSpaceOnUse" style="mask-type:luminance"><path fill="#fff" d="M1176.67 0H0v635.586h1176.67V0Z"/></mask><g mask="url(#dr)"><path fill="#fff" d="M581.263 563.085v13.513a1.894 1.894 0 0 1-3.788 0v-13.513a1.893 1.893 0 0 0-1.893-1.894h-.002a1.895 1.895 0 0 0-1.894 1.894v13.513a1.893 1.893 0 1 1-3.788 0v-13.513a1.893 1.893 0 1 0-3.786 0v15.093c0 5.212 4.078 9.686 9.291 9.78 5.312.098 9.647-4.179 9.647-9.467v-15.406a1.893 1.893 0 1 0-3.787 0Z"/></g><mask id="ds" width="1177" height="636" x="0" y="0" maskUnits="userSpaceOnUse" style="mask-type:luminance"><path fill="#fff" d="M1176.67 0H0v635.586h1176.67V0Z"/></mask><g mask="url(#ds)"><path fill="#FF9500" d="M597.376 561.191a3.47 3.47 0 0 0-3.47 3.471v35.979h6.941v-35.979a3.471 3.471 0 0 0-3.471-3.471Z"/></g><mask id="dt" width="1177" height="636" x="0" y="0" maskUnits="userSpaceOnUse" style="mask-type:luminance"><path fill="#fff" d="M1176.67 0H0v635.586h1176.67V0Z"/></mask><g mask="url(#dt)"><path fill="#FF9500" d="M597.376 619.183a9.47 9.47 0 0 0 9.47-9.471v-7.828a9.47 9.47 0 1 0-18.939 0v7.828c0 5.231 4.24 9.471 9.469 9.471Z"/></g><mask id="du" width="1177" height="636" x="0" y="0" maskUnits="userSpaceOnUse" style="mask-type:luminance"><path fill="#fff" d="M1176.67 0H0v635.586h1176.67V0Z"/></mask><g mask="url(#du)"><path fill="#fff" d="M354.409 520.477v55.184h29.556a12.71 12.71 0 0 0 12.278-9.423l9.2-34.33c1.544-5.769-2.8-11.431-8.771-11.431h-42.263Z"/></g><mask id="dv" width="1177" height="636" x="0" y="0" maskUnits="userSpaceOnUse" style="mask-type:luminance"><path fill="#fff" d="M1176.67 0H0v635.586h1176.67V0Z"/></mask><g mask="url(#dv)"><path fill="#fff" d="m358.849 503.904-4.44 16.573h19.932l3.104-11.59c1.639-6.113-2.969-12.117-9.297-12.117a9.626 9.626 0 0 0-9.299 7.134Z"/></g><mask id="dw" width="1177" height="636" x="0" y="0" maskUnits="userSpaceOnUse" style="mask-type:luminance"><path fill="#fff" d="M1176.67 0H0v635.586h1176.67V0Z"/></mask><g mask="url(#dw)"><path fill="#FFB900" d="m322.725 529.899-9.2 34.332c-1.544 5.767 2.801 11.43 8.771 11.43h32.113v-55.184h-19.405a12.713 12.713 0 0 0-12.279 9.422Z"/></g><mask id="dx" width="1177" height="636" x="0" y="0" maskUnits="userSpaceOnUse" style="mask-type:luminance"><path fill="#fff" d="M1176.67 0H0v635.586h1176.67V0Z"/></mask><g mask="url(#dx)"><path fill="#fff" d="M1085.87 403.77c-18.73 0-33.91 15.177-33.91 33.902s15.18 33.905 33.91 33.905c18.72 0 33.9-15.181 33.9-33.905 0-18.726-15.18-33.902-33.9-33.902Zm0 54.471c-11.36 0-20.57-9.211-20.57-20.569 0-11.359 9.21-20.568 20.57-20.568s20.57 9.209 20.57 20.568c0 11.358-9.21 20.569-20.57 20.569Z"/></g><mask id="dy" width="1177" height="636" x="0" y="0" maskUnits="userSpaceOnUse" style="mask-type:luminance"><path fill="#fff" d="M1176.67 0H0v635.586h1176.67V0Z"/></mask><g mask="url(#dy)"><path fill="#FFB900" d="M1130.86 437.672h-89.98c-5.97 0-10.31 5.663-8.77 11.431l9.2 34.331a12.707 12.707 0 0 0 12.28 9.422h64.56c5.75 0 10.79-3.863 12.27-9.422l9.2-34.331c1.55-5.768-2.79-11.431-8.76-11.431Z"/></g></svg>